<?xml version="1.0" encoding="utf-8"?>
<!-- Generator: Adobe Illustrator 17.1.0, SVG Export Plug-In . SVG Version: 6.00 Build 0)  -->
<!DOCTYPE svg PUBLIC "-//W3C//DTD SVG 1.1//EN" "http://www.w3.org/Graphics/SVG/1.1/DTD/svg11.dtd">
<svg version="1.1" id="Layer_1" xmlns="http://www.w3.org/2000/svg" xmlns:xlink="http://www.w3.org/1999/xlink" x="0px" y="0px"
	 viewBox="0 0 483.9 333.3" enable-background="new 0 0 483.9 333.3" xml:space="preserve">
<g>
	<defs>
		<rect id="SVGID_1_" width="483.9" height="333.3"/>
	</defs>
	<clipPath id="SVGID_2_">
		<use xlink:href="#SVGID_1_"  overflow="visible"/>
	</clipPath>
	<path clip-path="url(#SVGID_2_)" fill="#FFFFFF" d="M422,195l-11,8.3l4-22.6l-7.2-1.3l-6.9,39.4l7.2,1.3l1.2-7.1l3.5-2.6l5.3,11.5
		l8.9,1.6l-8.2-17.4l12.7-9.4L422,195z M399,204.4c1.5-8.6-2.5-14.7-10.8-16.2c-6.9-1.2-14.1,3.2-15.6,11.8
		c-1.6,9,3.9,15.4,11.3,16.7c6.6,1.2,11.5-2,13.7-6.3l-5.7-2.9c-1.3,2.2-3.4,3.6-6.8,3c-3.6-0.6-6.1-3.7-5.7-7.3l19.1,3.4
		C398.5,206.5,398.8,205.5,399,204.4 M392.4,200.5l-12-2.1c0.6-2.4,3.2-4.9,6.9-4.2C391.4,194.9,392.7,197.8,392.4,200.5
		 M369.8,199.3c1.5-8.6-2.5-14.7-10.8-16.2c-6.8-1.2-14.1,3.2-15.6,11.8c-1.6,9,3.9,15.4,11.3,16.7c6.6,1.2,11.5-2,13.7-6.3
		l-5.7-2.9c-1.3,2.2-3.4,3.6-6.8,3c-3.6-0.6-6.1-3.7-5.7-7.3l19.1,3.4C369.3,201.4,369.6,200.3,369.8,199.3 M363.2,195.3l-12-2.1
		c0.6-2.4,3.2-4.9,6.9-4.2C362.3,189.7,363.5,192.6,363.2,195.3 M353,102.8l7.1-1.9l-4.4-16.5c-1.5-5.8-5.8-9.6-12.3-7.9
		c-2.8,0.8-5.6,2.8-6.5,6l-0.9-3.3l-6.9,1.8l7,26.2l7.1-1.9l-4-15.1c-0.8-3,0.4-5.9,3.4-6.8c3.4-0.9,5.5,1,6.3,3.9L353,102.8z
		 M310.1,102.2l18.8-5c0-0.1-0.2-1.2-0.5-2.2c-2.3-8.4-8.5-12.3-16.6-10.1c-6.7,1.8-11.4,8.9-9.2,17.3c2.4,8.9,10.1,12.3,17.3,10.4
		c6.5-1.7,9.6-6.6,9.7-11.5l-6.4-0.2c-0.2,2.6-1.6,4.7-4.9,5.6C314.8,107.4,311.2,105.7,310.1,102.2 M309,97.3
		c-0.5-2.4,0.8-5.8,4.5-6.7c4.1-1.1,6.4,1,7.2,3.6L309,97.3z M301.5,113.6l-6.3-23.4l-6.8,1.8l0.8,3.1c-1.4-1.5-4.3-2.7-8.4-1.6
		c-7.2,1.9-10.6,9.1-8.8,16.1c2,7.4,8.6,11.3,15.6,9.5c3.8-1,5.8-3.3,6.4-5.3l0.5,1.9c1.4,5.1-0.5,8-5,9.2c-3.4,0.9-6.2-0.6-7.5-3.3
		l-5.9,3.4c2.1,4.8,8.1,8,15.3,6.1C301.3,128.4,303.4,120.8,301.5,113.6 M287.3,112.7c-3.7,1-7-0.9-8.1-5c-1.1-4.1,1-7.4,4.5-8.3
		c3.4-0.9,6.9,0.9,8,5C292.7,108.4,290.9,111.7,287.3,112.7 M272.4,124.4c-0.4-0.9-1.1-2.7-1.4-4.1l-3.5-12.9
		c-1.4-5.3-5.8-9.1-14.1-6.9c-7,1.9-9.6,7.4-8.9,11.7l6.6-0.4c-0.4-2.4,0.8-4.8,3.9-5.6c3-0.8,4.8,0.4,5.3,2.2
		c0.2,0.9,0,1.8-1.5,2.4l-6.2,2.7c-4.2,1.8-7,5.4-5.7,10c1.1,4.1,5.5,7,11.1,5.5c3.9-1,5.9-3.5,6.7-6c0.3,1,0.8,2.4,1.1,3.1
		L272.4,124.4z M258.2,123.4c-2.3,0.6-3.8-0.6-4.2-2.1c-0.5-2,0.6-3.4,2.4-4.2l5.7-2.5l0.3,1.2C263.5,120.4,261.2,122.6,258.2,123.4
		 M244.8,131.8l-4.4-16.5c-1.5-5.8-5.9-9.6-12.5-7.8c-2.5,0.7-5.2,2.3-6.3,4.8l-3.9-14.6l-7.1,1.9l10.3,38.6l7.1-1.9l-4.1-15.4
		c-0.6-2.9,0.5-5.6,3.5-6.4c3.4-0.9,5.5,1,6.3,3.9l4.1,15.3L244.8,131.8z M210.9,123.2c-1.5-5.8-5.8-9.6-12.3-7.9
		c-2.8,0.8-5.6,2.8-6.5,6l-0.9-3.3l-6.9,1.8l7,26.2l7.1-1.9l-4-15.1c-0.8-3,0.4-5.9,3.4-6.8c3.4-0.9,5.5,1,6.3,3.9l4.1,15.3l7.1-1.9
		L210.9,123.2z M165.4,141l18.8-5c0-0.1-0.2-1.2-0.5-2.2c-2.3-8.4-8.5-12.3-16.6-10.1c-6.7,1.8-11.4,8.9-9.2,17.3
		c2.4,8.9,10.1,12.3,17.3,10.4c6.5-1.7,9.6-6.6,9.7-11.5l-6.4-0.2c-0.2,2.6-1.6,4.7-4.9,5.6C170.1,146.2,166.5,144.5,165.4,141
		 M164.2,136.1c-0.5-2.4,0.8-5.8,4.5-6.7c4.1-1.1,6.4,1,7.3,3.6L164.2,136.1z M155.1,141.7c-2.1-7.8-8.1-12.5-15.8-10.4
		c-3.9,1.1-6.4,3.6-7,5.9l-0.9-3.2l-6.9,1.8l9.7,36.4l7.1-1.9l-3.4-12.7c1.8,1.4,4.8,2.1,8.4,1.2
		C153.8,156.9,157.2,149.7,155.1,141.7 M143.6,152.8c-3.6,1-7.3-1-8.5-5.7c-1.2-4.6,1-8.1,4.6-9.1c3.6-1,7.2,1,8.5,5.6
		C149.4,148.3,147.2,151.8,143.6,152.8 M124.2,150c-2.2-8.1-9.6-12.3-17.5-10.2c-7.8,2.1-12.2,9.5-10,17.6
		c2.2,8.1,9.6,12.3,17.5,10.2C122.1,165.6,126.4,158.1,124.2,150 M112.5,161.2c-3.5,0.9-7.4-0.8-8.7-5.7c-1.3-5,1.2-8.3,4.7-9.3
		s7.3,0.7,8.7,5.7C118.5,156.9,116,160.3,112.5,161.2 M63.7,160.1c-2.3-8.6,2.6-14.2,8.2-15.8c6.6-1.8,10.6,1.5,12.4,4.8l6.3-4
		c-3.1-5.7-10.2-10.7-20.7-7.9c-10.1,2.7-17.2,12.8-14,24.9c3.2,12,14.1,17.3,24.6,14.5c10.6-2.8,14.2-11.3,14-17.5l-7.4-0.2
		c-0.1,3.8-2.1,8.8-8.5,10.6C72.7,171.1,65.9,168.1,63.7,160.1 M146.6,245.4h26.5v-6.6h-17.2c0.6-1.4,1.7-2.4,3.1-3.3l6.9-4.2
		c4.4-2.7,7-6.5,7-11.1c0-6.2-4.9-11.5-12.9-11.5c-8.3,0-13.1,5.7-13.1,12c0,0.9,0.2,2,0.3,2.5l7.2,0.2c-0.2-0.6-0.3-1.3-0.3-2
		c0-3.4,1.9-6,5.7-6c3.6,0,5.4,2.3,5.4,4.9c0,2.5-1.2,4.4-4.2,6.2l-5.9,3.5C148.6,234,146.6,239.1,146.6,245.4 M178.9,214.8
		c-2.4,3.7-3.1,8.2-3.1,12.8c0,4.6,0.7,9.1,3.1,12.8c2.4,3.5,6.2,6,11.8,6s9.4-2.5,11.8-6c2.4-3.7,3.2-8.2,3.2-12.8
		c0-4.6-0.8-9.1-3.2-12.8c-2.3-3.5-6.2-6-11.8-6S181.3,211.3,178.9,214.8 M183.4,227.5c0-3.8,0.6-7,1.9-9.1c1.1-1.8,2.8-2.9,5.4-2.9
		c2.6,0,4.3,1.2,5.4,2.9c1.4,2.2,2,5.4,2,9.1c0,3.8-0.6,7-2,9.1c-1.1,1.8-2.7,2.9-5.4,2.9c-2.6,0-4.3-1.2-5.4-2.9
		C183.9,234.5,183.4,231.3,183.4,227.5 M199.3,183.3l7.9,1.4l4.8-8.2l15.7,2.8l1.7,9.4l8.2,1.4l-7.9-41.1l-8.7-1.5L199.3,183.3z
		 M215.7,170.1l7.9-13.6l2.8,15.5L215.7,170.1z M209.2,216.3v5.1h7.9v24h7.6v-35.8h-6.6C217.3,213.4,214.4,216.3,209.2,216.3
		 M257.2,173.1c0.7,0.1,1.4,0.3,2.1,0.6l1.3-7.3c-0.5-0.2-1.1-0.3-1.7-0.4c-2.3-0.4-6.1-0.4-8.3,2.8l0.7-4l-7-1.2l-4.7,26.7l7.2,1.3
		l2.2-12.2C249.9,173.7,253.5,172.5,257.2,173.1 M261.3,173.3l4.8,0.9l-2.2,12.4c-0.9,5.2,1.8,8.8,7,9.8c2.1,0.4,3.5,0.2,4.2,0.1
		l1.1-6c-0.4,0-1.4,0-2.3-0.2c-2.1-0.4-3-1.3-2.6-3.7l2-11.2l5.4,0.9l1.1-6.4l-5.4-0.9l1.4-8l-6.5-1.1l-0.7,3.8
		c-0.4,2.4-2.1,4-4.9,3.5l-1.4-0.2L261.3,173.3z M303.3,161.9l-7.9-1.4l3.9,40.4l7.8,1.4l13.6-25.9l4,29l7.7,1.4l17.5-36.7l-7.7-1.4
		l-11.7,25.4l-3.9-28.2l-7.8-1.4l-13.2,25L303.3,161.9z"/>
	<path clip-path="url(#SVGID_2_)" fill="#FFFFFF" d="M469.8,287.4c0-1.2-0.5-2.5-1.7-3.2h1.4v-2.9h-11.2v3h6.4
		c1.3,0,2.3,0.8,2.3,2.1c0,1.5-1,2.1-2.2,2.1h-6.5v3h7C467.8,291.4,469.8,290.2,469.8,287.4 M467.5,271h2V16.2v-2h-2H16.2h-2v2
		v301.1v2h2h349.1v-2H16.2V16.2h451.3V271z M378.5,302.8h-3v16.5h3v-3l1.2-1.3l3,4.3h3.7l-4.6-6.5l4.5-4.7h-4l-3.9,4.2V302.8z
		 M390.5,308h-3v7c0,2.5,1.3,4.4,4,4.4c1.2,0,2.5-0.5,3.2-1.7v1.4h2.9V308h-3v6.4c0,1.3-0.8,2.3-2.1,2.3c-1.5,0-2.1-1-2.1-2.2V308z
		 M403.3,308h-2.9v11.2h3v-6.4c0-1.3,0.8-2.3,2.1-2.3c1.5,0,2.1,1,2.1,2.2v6.5h3v-7c0-2.5-1.3-4.4-4-4.4c-1.2,0-2.5,0.5-3.2,1.7V308
		z M414.8,315.5l-2.6,0.6c0.1,1.3,1.3,3.5,4.8,3.5c3,0,4.4-1.9,4.4-3.7c0-1.6-1.1-3-3.4-3.4l-1.6-0.3c-0.6-0.1-1-0.5-1-1
		c0-0.6,0.6-1.1,1.5-1.1c1.3,0,1.8,0.8,1.9,1.5l2.6-0.6c-0.1-1.2-1.2-3.2-4.5-3.2c-2.5,0-4.3,1.7-4.3,3.7c0,1.6,1,2.9,3.2,3.3
		l1.5,0.3c0.9,0.2,1.2,0.6,1.2,1.1c0,0.6-0.5,1.1-1.5,1.1C415.6,317.3,414.9,316.4,414.8,315.5 M423.1,308h-0.6v2.7h2v5.2
		c0,2.2,1.4,3.5,3.5,3.5c0.9,0,1.4-0.2,1.7-0.3v-2.5c-0.2,0-0.6,0.1-0.9,0.1c-0.9,0-1.3-0.3-1.3-1.3v-4.7h2.2V308h-2.2v-3.3h-2.7
		v1.6C424.8,307.3,424.2,308,423.1,308 M431.1,313.6c0,3.8,2.7,6,5.7,6c2.7,0,4.5-1.6,5-3.5l-2.5-0.8c-0.4,1-1.1,1.7-2.5,1.7
		c-1.5,0-2.7-1.1-2.8-2.5h7.9c0,0,0-0.5,0-0.9c0-3.6-2-5.8-5.5-5.8C433.7,307.7,431.1,310,431.1,313.6 M434.1,312.4
		c0.1-1,0.9-2.2,2.5-2.2c1.7,0,2.4,1.1,2.5,2.2H434.1z M446.9,308h-2.9v11.2h3v-6.4c0-1.3,0.8-2.3,2.1-2.3c1.5,0,2.1,1,2.1,2.2v6.5
		h3v-7c0-2.5-1.3-4.4-4-4.4c-1.2,0-2.5,0.5-3.2,1.7V308z M459.7,301h-1.4v2.9h11.2v-3H463c-1.3,0-2.3-0.8-2.3-2.1
		c0-1.5,1-2.1,2.2-2.1h6.5v-3h-7c-2.5,0-4.4,1.3-4.4,4C458,298.9,458.5,300.3,459.7,301 M464.8,317c0,1.4,1.1,2.5,2.5,2.5
		c1.4,0,2.5-1.1,2.5-2.5c0-1.4-1.1-2.5-2.5-2.5C465.9,314.5,464.8,315.7,464.8,317"/>
</g>
<path fill="#FFFFFF" d="M229.9,229.7l15.1-20.2h9.4v21.7h5.9v6.5h-5.9v7.7h-7.5v-7.7h-17V229.7z M246.9,217.4l-10.2,13.7h10.2V217.4
	z"/>
</svg>
