<?xml version="1.0" encoding="utf-8"?>
<!-- Generator: Adobe Illustrator 17.1.0, SVG Export Plug-In . SVG Version: 6.00 Build 0)  -->
<!DOCTYPE svg PUBLIC "-//W3C//DTD SVG 1.1//EN" "http://www.w3.org/Graphics/SVG/1.1/DTD/svg11.dtd">
<svg version="1.1" id="Lag_1" xmlns="http://www.w3.org/2000/svg" xmlns:xlink="http://www.w3.org/1999/xlink" x="0px" y="0px"
	 viewBox="0 0 111 66.9" enable-background="new 0 0 111 66.9" xml:space="preserve">
<g>
	<polyline fill="#FFFFFF" points="72.3,33.3 72,23.2 71.4,22.6 71.3,19 72,18.3 72,17.1 64,17.1 64,18.3 64.7,19 64.6,22.6 64,23.2 
		63.8,33.3 72.3,33.3 	"/>
	<path fill="#FFFFFF" d="M71.3,15.9v-1.2c0-2-1.5-3.4-3.3-3.4c-1.8,0-3.2,1.4-3.2,3.4v1.2H71.3"/>
	<polyline fill="#FFFFFF" points="38.7,33.3 39,23.2 39.6,22.6 39.7,19 39,18.3 39,17.1 47,17.1 47,18.3 46.3,19 46.4,22.6 47,23.2 
		47.2,33.3 38.7,33.3 	"/>
	<path fill="#FFFFFF" d="M39.7,15.9v-1.2c0-2,1.5-3.4,3.2-3.4c1.8,0,3.2,1.4,3.2,3.4v1.2H39.7"/>
	<polyline fill="#FFFFFF" points="43,5.4 42.4,7.1 40.6,6.7 41.9,8.1 40.6,9.4 42.4,9 43,10.8 43.5,9 45.3,9.4 44.1,8.1 45.3,6.7 
		43.5,7.1 43,5.4 	"/>
	<polyline fill="#FFFFFF" points="68,5.4 68.6,7.1 70.4,6.7 69.1,8.1 70.4,9.4 68.6,9 68,10.8 67.5,9 65.7,9.4 66.9,8.1 65.7,6.7 
		67.5,7.1 68,5.4 	"/>
	<path fill="#FFFFFF" d="M60.6,33.3l-0.3-12.6l0.7-0.7v-1.6H50.1V20l0.7,0.7l-0.3,12.6h3.1v-4.7c0-1.2,0.9-2.1,2-2.1
		c1.1,0,2,0.9,2,2.1v4.7L60.6,33.3"/>
	<polyline fill="#FFFFFF" points="59.8,17.3 59.7,14.5 60.4,13.8 60.4,11.7 58.4,11.7 58.4,13.5 56.5,13.5 56.5,11.8 54.5,11.8 
		54.5,13.5 52.6,13.5 52.6,11.7 50.6,11.7 50.6,13.8 51.3,14.5 51.2,17.3 59.8,17.3 	"/>
	<polyline fill="#FFFFFF" points="59.5,10.9 55.5,4.2 51.5,10.9 59.5,10.9 	"/>
	<path fill="#FFFFFF" d="M53.9,1.9c-0.1-1,0.7-1.9,1.7-1.9c0.8,0,1.2,0.4,1.3,0.5c0,0,0.1,0.1,0,0.1c0,0-0.1,0.1-0.1,0
		c-0.1-0.1-0.3-0.2-0.7-0.2c-0.7,0-1.3,0.7-1.3,1.4c0,0.7,0.7,1.3,1.4,1.3c0.4,0,0.5-0.1,0.6-0.2c0.1,0,0.1,0,0.1,0c0,0,0,0.1,0,0.1
		c-0.1,0.1-0.5,0.5-1.2,0.6C54.8,3.7,54,2.9,53.9,1.9"/>
	<path fill="#FFFFFF" d="M55.5,40.2c-3.5,0-5.9-2.3-6.8-4.7c-1.4,5.1-7.8,6-10.1,2.5c-0.8-1.3-1.2-3.2-1.4-4.9c0-0.1,0-0.2,0.1-0.2
		c0.1,0,0.1,0,0.2,0.1c0.6,2.2,1.7,2.9,3.1,3.5c3.4,1.2,7.3-0.5,8-4.2c0-0.1,0.1-0.2,0.1-0.2c0.1,0,0.1,0.1,0.1,0.2
		c0.6,2.6,3.4,4.7,6.6,4.7c3.2,0,6-2.1,6.6-4.7c0-0.1,0.1-0.2,0.1-0.2c0.1,0,0.1,0.1,0.1,0.2c0.7,3.8,4.6,5.4,8,4.2
		c1.4-0.5,2.5-1.2,3.1-3.5c0-0.1,0.1-0.2,0.2-0.1c0.1,0,0.1,0.1,0.1,0.2c-0.2,1.7-0.5,3.6-1.4,4.9c-2.2,3.5-8.6,2.5-10.1-2.5
		C61.4,37.9,59,40.2,55.5,40.2"/>
	<path fill="#FFFFFF" d="M55.5,46.3c3.4,0,6.2-2.4,6.7-5.2c0.7,4.3,6.3,6.1,9,2.9c1-1.2,1.6-2.9,1.8-4.7c0-0.1,0-0.2-0.1-0.2
		c-0.1,0-0.1,0-0.2,0.1c-0.6,1.9-1.5,2.8-2.9,3.3c-3.6,1.2-6.9-1.3-7.5-4.4c0-0.1-0.1-0.2-0.1-0.2c-0.1,0-0.1,0-0.1,0.2
		C61.8,40,59.5,43,55.5,43c-3.9,0-6.3-3.1-6.6-4.8c0-0.1-0.1-0.2-0.2-0.2c-0.1,0-0.1,0.1-0.1,0.2c-0.6,3.1-3.9,5.6-7.5,4.4
		c-1.4-0.5-2.3-1.4-2.9-3.3c0-0.1-0.1-0.1-0.2-0.1c-0.1,0-0.1,0.1-0.1,0.2c0.3,1.8,0.8,3.5,1.9,4.7c2.7,3.2,8.3,1.4,8.9-2.9
		C49.3,43.9,52.1,46.3,55.5,46.3"/>
	<g>
		<path fill="#FFFFFF" d="M70.3,46.4c0-0.1,0-0.2,0-0.2c-0.1,0-0.1,0-0.2,0.1C69.5,47,68.8,47.7,68,48c-2.8,0.9-5.3-1-5.7-3.6
			c0-0.1-0.1-0.2-0.1-0.2c-0.1,0-0.1,0.1-0.1,0.2c-0.7,2.6-3.3,4.9-6.6,4.9c-3.3,0-5.9-2.3-6.6-4.9c0-0.1-0.1-0.2-0.2-0.2
			c-0.1,0-0.1,0.1-0.1,0.2C48.3,47,45.8,48.8,43,48c-0.8-0.2-1.5-0.9-2.1-1.8c-0.1-0.1-0.1-0.1-0.2-0.1c-0.1,0-0.1,0.1,0,0.2
			c0.8,1.6,1.9,2.8,3.1,3.4c0.5,0.3,1,0.4,1.5,0.5h0.8c1.3-0.2,2.5-1.1,2.7-2.8c0.3,1,0.9,2,1.7,2.8h10c0.8-0.8,1.4-1.8,1.7-2.8
			c0.2,1.7,1.4,2.6,2.7,2.8h0.8c0.5-0.1,1-0.2,1.5-0.5C68.4,49.1,69.6,48,70.3,46.4z"/>
		<polygon fill="#FFFFFF" points="1.4,64.1 3.6,66.8 5.5,66.8 3,63.7 4.9,61 3.3,61 1.5,63.6 1.4,63.6 1.4,61 0,61 0,66.8 1.4,66.8 
					"/>
		<path fill="#FFFFFF" d="M18.1,65.1c0-0.7-0.4-1.3-1.2-1.5c0.5-0.2,0.8-0.7,0.8-1.2c0-0.6-0.5-1.5-1.9-1.5h-2.5v5.8H16
			C17.7,66.8,18.1,65.8,18.1,65.1z M14.7,62.1L14.7,62.1l0.8-0.1c0.6,0,0.8,0.3,0.8,0.6c0,0.3-0.2,0.7-0.8,0.7h-0.8V62.1z
			 M14.7,65.8v-1.4h1.1c0.5,0,0.9,0.2,0.9,0.7c0,0.5-0.3,0.8-1.1,0.8H14.7z"/>
		<polygon fill="#FFFFFF" points="23.4,65.8 20.6,65.8 20.6,64.4 23.2,64.4 23.2,63.3 20.6,63.3 20.6,62.1 23.3,62.1 23.3,61 
			19.2,61 19.2,66.8 23.4,66.8 		"/>
		<polygon fill="#FFFFFF" points="108.2,64.4 110.8,64.4 110.8,63.3 108.2,63.3 108.2,62.1 110.9,62.1 110.9,61 106.8,61 
			106.8,66.8 111,66.8 111,65.8 108.2,65.8 		"/>
		<polygon fill="#FFFFFF" points="33.3,64.5 36,64.5 36,66.8 37.4,66.8 37.4,61 36,61 36,63.4 33.3,63.4 33.3,61 31.9,61 31.9,66.8 
			33.3,66.8 		"/>
		<path fill="#FFFFFF" d="M40,65.7h2.6l0.5,1.1h1.6L42.1,61h-1.7L38,66.8h1.5L40,65.7z M41.2,62.4l0.9,2.3h-1.8L41.2,62.4z"/>
		<polygon fill="#FFFFFF" points="46.9,66.9 49.5,61 48,61 46.6,64.3 45.1,61 43.5,61 46.3,66.9 		"/>
		<polygon fill="#FFFFFF" points="51.4,63.1 54.6,66.8 55.8,66.8 55.8,61 54.3,61 54.3,64.6 51.3,61 50,61 50,66.8 51.4,66.8 		"/>
		<polygon fill="#FFFFFF" points="101.1,63.1 104.2,66.8 105.4,66.8 105.4,61 104,61 104,64.6 101,61 99.6,61 99.6,66.8 101.1,66.8 
					"/>
		<polygon fill="#FFFFFF" points="26.2,63.1 29.3,66.8 30.5,66.8 30.5,61 29.1,61 29.1,64.6 26,61 24.7,61 24.7,66.8 26.2,66.8 		
			"/>
		<path fill="#FFFFFF" d="M59.8,65.3c0,0.3-0.3,0.5-0.8,0.5c-0.6,0-1.1-0.2-2-0.7v1.2c0.6,0.3,1.1,0.6,2.1,0.6
			c1.3,0,2.2-0.6,2.2-1.8c0-2-3.1-1.7-3.1-2.6c0-0.3,0.5-0.5,1-0.5c0.5,0,1,0.1,1.8,0.5v-1.1c-0.7-0.3-1.3-0.5-2-0.5
			c-1.3,0-2.2,0.7-2.2,1.7C56.8,64.7,59.8,64.3,59.8,65.3z"/>
		<polygon fill="#FFFFFF" points="66.4,64.1 68.7,66.8 70.5,66.8 68,63.7 69.8,61 68.3,61 66.4,63.6 66.4,63.6 66.4,61 65,61 
			65,66.8 66.4,66.8 		"/>
		<path fill="#FFFFFF" d="M76.8,64c0-1.4-1.1-3-3.3-3s-3.3,1.6-3.3,3c0,1.4,1,2.7,2.8,3H74C75.7,66.7,76.8,65.3,76.8,64z M73.4,65.8
			c-1.1,0-1.8-0.7-1.8-1.8c0-1.1,0.7-1.8,1.8-1.8c1.1,0,1.8,0.7,1.8,1.8C75.3,65,74.5,65.8,73.4,65.8z"/>
		<polygon fill="#FFFFFF" points="79,63.2 80.6,65 80.8,65 82.4,63.2 82.4,66.8 83.8,66.8 83.8,61 82.7,61 80.7,63.4 78.7,61 
			77.6,61 77.6,66.8 79,66.8 		"/>
		<polygon fill="#FFFFFF" points="86.7,63.2 88.3,65 88.5,65 90.1,63.2 90.1,66.8 91.5,66.8 91.5,61 90.4,61 88.4,63.4 86.4,61 
			85.3,61 85.3,66.8 86.7,66.8 		"/>
		<path fill="#FFFFFF" d="M98.3,64.4V61v0h-1.4v3.3c0,1-0.6,1.4-1.3,1.4c-0.8,0-1.3-0.5-1.3-1.3V61h-1.4v3.4c0,1.6,0.8,2.3,2.1,2.5
			h1.3C97.5,66.7,98.3,66,98.3,64.4z"/>
		<path fill="#FFFFFF" d="M65.7,50.2h-0.8C65.1,50.3,65.4,50.3,65.7,50.2z"/>
		<path fill="#FFFFFF" d="M46.1,50.2h-0.8C45.6,50.3,45.9,50.3,46.1,50.2z"/>
		<path fill="#FFFFFF" d="M55.5,52.4c2.1,0,3.8-0.9,5-2.2h-10C51.7,51.5,53.4,52.4,55.5,52.4z"/>
		<path fill="#FFFFFF" d="M12.2,61.6l-0.7-0.7l-0.7,0.6c-0.5-0.3-1.1-0.5-1.9-0.5c-2.2,0-3.3,1.6-3.3,3c0,0.6,0.2,1.2,0.6,1.7
			l-0.5,0.5l0.7,0.8h0l0.6-0.5c0.4,0.3,0.8,0.4,1.4,0.5h1.2c1.7-0.2,2.8-1.6,2.8-3c0-0.6-0.2-1.2-0.6-1.8L12.2,61.6z M7,64
			c0-1.1,0.7-1.8,1.8-1.8c0.3,0,0.7,0.1,0.9,0.2l-2.6,2.4C7.1,64.5,7,64.2,7,64z M8.8,65.8c-0.4,0-0.7-0.1-1-0.3l2.7-2.4
			c0.1,0.2,0.2,0.5,0.2,0.8C10.7,65,9.9,65.8,8.8,65.8z"/>
	</g>
</g>
</svg>
