<?xml version="1.0" encoding="utf-8"?>
<!-- Generator: Adobe Illustrator 18.0.0, SVG Export Plug-In . SVG Version: 6.00 Build 0)  -->
<!DOCTYPE svg PUBLIC "-//W3C//DTD SVG 1.1//EN" "http://www.w3.org/Graphics/SVG/1.1/DTD/svg11.dtd">
<svg version="1.1" id="Group_1_xA0_Image_1_" xmlns="http://www.w3.org/2000/svg" xmlns:xlink="http://www.w3.org/1999/xlink"
	 x="0px" y="0px" viewBox="0 0 715 213" enable-background="new 0 0 715 213" xml:space="preserve">
<g>
	<path fill="#FFFFFF" d="M568.3,76c-3.1-1.4-6.2-2.6-9.3-4.1c-2.3-1.1-4.6-2.5-6.2-4.6c-2-2.8-4.1-5.4-6.8-7.6
		c-2.2-1.8-4.4-3.4-6.8-4.9c-2.4-1.5-4.9-2.6-7.4-3.9c-3-1.6-6-3.2-9.1-4.7c-3.6-1.8-7.5-2.4-11.4-1.4c-1.3,0.4-2.7,1.3-3.7,2.3
		c-0.8,0.8-1.2,2.1-1.7,3c-1.9-1.1-3.8-2.1-5.7-3.1c-3-1.7-6.3-2.8-9.7-2c-3.3,0.8-4.8,2.6-6.2,3.6c-0.3-0.8-0.6-1.8-0.9-2.6
		c-1.8,0-6,0-5.9,0.2c0.6,1.7,1.2,4,2,5.5c1.4,2.6,3.1,5.1,5.1,7.4c2.2,2.4,4.7,4.3,7.2,6.1c3.2,2.3,6.5,4.3,9.1,7.4
		c1.9,2.3,3.9,4.6,5.8,7c1.6,2,3.4,3.6,5.6,4.7c3.7,1.7,7.4,3.3,11.1,5c3.6,1.7,5.8,4.6,6.7,8.4c0.5,2.2,0.8,4.5,0.9,6.8
		c0.1,2.3,0,4.7,0,7c0,0.6,0.1,0.9,0.8,0.9c1.6-0.1,3.1,0,4.8,0c0.1-0.3,0.1-0.5,0.1-0.7c0.2-4.5,0.3-9-0.4-13.4
		c-0.9-5.3-3.6-9.2-8.8-11.3c-2.4-1-4.8-1.9-7.2-3c-3.8-1.8-7.2-4-9.5-7.7c-3.2-4.9-7.4-8.8-12.3-12c-2.7-1.8-5.1-4.1-7.7-6.2
		c-1.8-1.4-1.1-3.4-0.1-4.9c0.9-1.2,2.3-1.6,3.6-1.8c1-0.1,2.1,0.2,3.2,0.4c3.2,0.7,5.8,2.4,8.5,4.1c1.7,1.1,3.3,2.2,5,3.3
		c1.4,0.9,2.8,1.6,4.1,2.5c1.1,0.8,2.1,1.7,3.2,2.6c2.6,2,4.6,4.7,6.6,7.3c1.6,2,3.1,4.2,5.3,5.7c3.8,2.5,8.1,3.9,12.2,5.8
		c1.7,0.8,3.4,1.8,4.6,3.1c2.6,2.6,3.5,6.1,4.1,9.6c0.2,1.5,0.2,3,0.3,4.5c0,2.2-0.1,4.4-0.1,6.6c0,1.8,0,3.7,0,5.7
		c1.7,0,3.3,0,4.9,0c0.6,0,0.7-0.3,0.7-0.9c0-1.8,0-3.7,0-5.5c0.1-5.3,0.6-10.6-1-15.8c-1.1-3.7-3.3-6.6-6.8-8.3c-3-1.4-6-2.6-9-3.9
		c-2.7-1.3-5.3-2.7-7.3-5c-3.1-3.8-5.7-8.1-9.9-10.9c-1.4-1-2.8-2.1-4.3-2.9c-1.8-0.9-2.5-2.5-3-4.1c-0.6-1.8,1.5-3.6,3.7-3.6
		c2.5,0,4.7,0.9,6.9,1.8c4.5,1.8,8.9,3.9,12.9,6.7c3.1,2.1,5,5.2,7.3,7.9c1,1.1,1.8,2.4,3,3.3c3.4,2.6,7.4,4.1,11.4,5.6
		c1.7,0.7,3.5,1.5,5,2.6c2.5,1.8,4,4.4,4.8,7.4c0.6,2.3,1,4.7,0.9,7.1c-0.1,2,0,4,0,6c0,4.1,0,8.2,0,12.2c0,0.4,0.5,0.7,0.7,0.7
		c1.4,0.1,2.7,0.1,4.1,0.2c0.7,0,1-0.1,1-1c-0.1-5.8-0.3-11.7,0-17.5c0.2-4.8-1-9.1-2.9-13.4C573.3,78.6,570.8,77.2,568.3,76z"/>
	<path fill="#FFFFFF" d="M613.5,88.3c-0.3-1.2-0.4-2.4-0.8-3.5c-0.7-2-1.7-4-2.5-6.1c-1-2.6-2-5.2-3-7.8c-0.7-1.9-2.1-3.2-3.8-4.1
		c-2.6-1.4-5.3-2.6-7.9-4.1c-2.5-1.5-4.9-3.2-7.3-4.9c-1.7-1.2-3.2-2.7-4.9-4c-1.5-1.1-3.2-2.1-4.9-2.9c-3-1.4-6-2.8-9-4
		c-1.9-0.7-9.6-3.2-14.4-2c-2.1,0.5-1.5,3.6-1.3,4c-3.1-1.8-5.9-3.9-8.2-6.6c-3.6-4.3-6.2-9.2-7-14.7c-2.1,0-3.9,0-6.3,0
		c1,3.1,1.6,6.1,2.8,8.7c2.5,5.5,6.4,10.1,11.6,13.4c5.9,3.8,10.9,8.4,14.9,14.2c1.4,2.1,3.4,3.7,5.7,4.9c3.5,1.7,7,3.2,10.5,4.7
		c3.7,1.6,6.3,4.3,7.6,8c1.2,3.5,1.4,7.2,1.3,10.8c0,4.5-0.1,9-0.2,13.4c0,2.4,0,4.9,0,7.3c2,0,3.7,0,5.5,0c0-1,0-2,0-3.2
		c2.2,3,6.7,4.5,10.2,3.6c4.5-1.2,7.7-3.8,9.6-8.2c1.4-3.1,1.9-6.3,2-9.7C613.9,93.5,613.6,88.7,613.5,88.3z M608.3,95.6
		c-0.2,1.7-0.8,3.5-1.3,5.2c-0.5,1.8-1.7,3.2-3,4.4c-1.4,1.2-4.4,2.2-6.9,1c-2.4-1.1-4.2-2.9-5-5.3c-0.6-1.7,0.4-10,0-13.4
		c-0.2-1.7,0.2-3.3,0.5-4.9c0.4-2.3-0.5-4.2-2.2-5.7c-3.5-3.1-7.5-5.2-11.9-6.9c-3.6-1.3-7.2-3-9.9-5.9c-1.1-1.2-2.2-2.5-3.1-3.9
		c-1-1.5-0.5-4.6,0.9-5.4c0,0,3.6-1.9,8.7,0.3c2.6,1.1,5.1,2.5,7.4,4.2c2.2,1.6,4.4,3.3,6.7,4.7c2.4,1.5,5,2.7,7.5,4.1
		c2.3,1.4,3.7,3.5,4.1,6.1c0.4,2.4,1.3,4.5,2.6,6.4c0.8,1.1,1.5,2.2,2.3,3.2c1.5,2.1,2.3,4.4,2.7,6.8
		C608.7,92.2,608.5,93.9,608.3,95.6z"/>
	<path fill="#FFFFFF" d="M488.2,80c-1.1,1.4-2.8,2-4.6,1.8c-1.9-0.1-5.9-1.5-8-2.6c-4.4-2.2-8.8-4.6-13.1-7
		c-2.2-1.3-7.4-4.8-7.7-6.2c9.8,0.5,19.9,1.1,29.9,1.6c-0.2-0.2-0.3-0.3-0.4-0.4c-1.9-1.4-3.9-2.7-5.6-4.3c-1.6-1.5-3-3.2-4.6-4.8
		c-1.1-1.2-2.3-2.3-3.4-3.4c-2.1-2.2-4.2-4.3-6.7-6c-3.6-2.5-7.5-3-11.6-1.8c-1.2,0.3-2.5,0.9-3.5,1.7c-1.1,0.8-2,1.9-2.8,3
		c-1.3,1.7-1.9,3.8-1.9,5.9c0,3.3,1.7,6.1,3.7,8.6c1.4,1.8,3.2,3.3,5,4.8c1.9,1.5,3.9,2.9,6,4.1c2.4,1.4,4.8,2.7,7.2,4.1
		c3,1.7,5.9,3.7,8.9,5.3c4.9,2.7,10.2,3.6,15.7,2.3c3.1-0.7,5.5-2.5,7.5-5.2c-3-1.8-5.8-3.5-8.6-5.1C489.4,77.6,488.9,79,488.2,80z
		 M452.4,59.7c-1.5,0-1.9-0.2-1.7-1.9c0.3-2.6,1.9-5.7,6.6-5.7c2.9,0,5,1.5,7.1,3.1c0.9,0.7,1.8,1.6,2.6,2.4c0.5,0.5,1,1.1,1.4,1.7
		c0,0.1-0.1,0.2-0.1,0.3c-1.9,0-3.7,0-5.6,0C459.2,59.6,455.8,59.6,452.4,59.7z"/>
	<path fill="#FFFFFF" d="M385.5,79c-2.9-2.7-4.9-6.1-6.8-9.5c-1-1.8-1.7-3.6-2.5-5.5c-0.7-1.6-1.2-3.2-1.8-4.7
		c-0.5-1.4-1-2.9-1.5-4.3c-0.5-1.6-0.9-3.3-1.4-4.9c-0.4-1.3-0.8-2.7-1.2-4c-0.8-2.6-1.5-5.3-2.3-7.9c-0.1-0.3-0.2-0.7-0.3-1
		c-0.6-1.1-2.4-0.9-2.7-0.9c-0.7,0-1.5,0.1-1.9,1.1c-1,2.2-2,4.4-3.1,6.6c-1.6,3.5-3.3,6.9-5,10.4c-1.1,2.3-2.3,4.6-3.4,6.9
		c-0.8,1.6-1.5,3.2-2.1,4.8c-0.8,2.1-1.5,4.2-2.2,6.3c-0.6,1.7-1.2,3.3-1.5,5c-0.4,2-0.7,4.1-1,6.4c1.7,0,3.2,0,4.8,0
		c2.1,0,2.2,0,2.2-2c0-3.6,1.1-6.9,2-10.3c0.1-0.3,0.7-0.8,1-0.8c5.6-0.3,11.1-0.5,16.7-0.7c0.6,0,0.9,0.2,1.2,0.7
		c0.7,1.3,5.9,8.9,8.4,11.5c1,1,2,2.1,3.8,2.2c1.1,0,5.1,0,6.3,0C390.3,83.7,386.8,80.2,385.5,79z M356.2,64.6
		c2.8-5.8,5.4-11.3,8-16.8c0.1,0.1,0.2,0.1,0.3,0.2c1.6,5.3,3.3,10.5,4.9,16C365.2,64.1,360.9,64.3,356.2,64.6z"/>
	<path fill="#FFFFFF" d="M454.3,78.5c-1.5-1.1-3.1-2.2-4.6-3.3c-1.2-0.9-2.4-1.8-3.5-2.8c-2.4-2.1-4.7-4.4-7.2-6.3
		c-1.7-1.3-3.7-2.2-5.7-3.1c-1.5-0.7-3.2-1.2-4.8-1.7c-1.7-0.5-3.5-0.9-5.2-1.5c-1-0.4-1.8-1.1-2.1-2.3c-0.6-2.7,1.4-4,3.6-4.3
		c2.1-0.3,4.9,0.2,7.6,1.9c0.8-1.4,2.5-4.7,2.3-4.8c-2.1-1.6-6.4-3.6-11.5-2.6c-6.3,1.3-8.2,6.7-7.9,9.7c0.3,3.1,2.1,5.2,4.7,6.9
		c3.1,1.9,6.6,2.3,10,3.4c2.7,0.8,5.5,1.5,7.7,3.4c2.3,1.9,4.4,4.1,6.6,6.2c0.9,0.9,1,2,0.2,2.4c-0.5,0.3-1.2,0.4-1.7,0.4
		c-0.9-0.1-1.7-0.4-2.6-0.6c-2.1-0.5-4.3-0.8-6.4-1.5c-2.6-1-5.1-2.3-7.6-3.4c-0.7-0.3-1.3-0.7-2.1-1.1c0.1,0.4,0.7,2,0.9,2.6
		c0.8,2.3,4.2,5.3,4.2,5.3s5.1,2.4,7.7,3.3c3.2,1.2,6.6,2.3,9.9,3.3c2.3,0.8,9.1,1,11.1-1.2c1-1.1,1.2-2.8,0.7-3.9
		C457.3,81.3,455.9,79.8,454.3,78.5z"/>
	<path fill="#FFFFFF" d="M625.9,82.3c0-3.4,0.1-6.7-0.8-10c-0.7-2.4-1.7-4.6-3.4-6.5c-1.6-1.7-3.7-2.8-5.9-3.7
		c-3-1.3-5.9-2.6-8.9-3.9c-4-1.9-6.3-5.6-9-8.9c-1.4-1.8-2.9-3.6-4.7-5.1c-3-2.5-6.3-4.8-9.5-7.2c-3.3-2.5-5.8-5.5-7.7-9.2
		c-0.4-0.7-0.9-1.7-1.5-1.7c-1.9-0.2-3.8-0.1-6-0.1c1,1.7,1.8,3,2.5,4.3c1.6,3,3.7,5.5,6.3,7.6c3,2.4,6,4.7,9.1,6.9
		c3.2,2.4,5.7,5.5,8,8.7c1.9,2.6,4.1,4.9,7.1,6.3c3.2,1.5,6.4,2.9,9.7,4.3c2.8,1.2,5.2,3,6.7,5.7c2.1,3.8,2.5,8,2.5,12.3
		c0,2.4-0.1,4.9-0.1,7.3c0,3.5,0.2,7,0.1,10.5c0,3.7-0.1,7.5-0.2,11.2c0,0.3,0.4,0.8,0.5,0.8c1.6,0,5,0,5,0s0-1.6,0-2.2
		c0.1-4.8,0.2-9.6,0.2-14.5C626,90.9,625.9,86.6,625.9,82.3z"/>
	<path fill="#FFFFFF" d="M642,104.5c-2.6-1.6-4.5-5.6-3.9-9.1c6.8,0,13.7,0,20.8,0c-0.2-2.9-0.3-5.3-0.8-7.6
		c-0.6-2.3-1.5-4.6-2.6-6.8c-1.4-2.9-3.4-5.4-6.6-6.3c-1.7-0.5-3.6-0.8-5.3-0.5c-2.8,0.4-4.9,2.3-6.7,4.5c-1.6,2.1-3,4.5-3.6,7.1
		c-0.4,1.8-0.8,3.7-0.9,5.6c-0.1,2.3,0.2,4.6,0.4,6.9c0.3,2.9,1.1,5.5,2.7,7.9c2.1,2.9,5,4.5,8.4,4.7c1.9,0.1,4-0.3,5.9-0.8
		c3.2-0.9,5.5-3,7.2-5.3c-1.1-1.2-2.2-2.3-3.3-3.5C649.6,106.2,645.2,106.4,642,104.5z M638.5,87.2c0.6-2.1,1.9-3.9,3.6-5.2
		c0.7-0.6,1.9-0.9,2.8-0.9c1.1-0.1,2.3-0.1,3.2,0.4c2.5,1.4,3.7,3.9,4.6,6.5c0.1,0.3,0.2,0.7,0.2,1.2c-4.9,0-9.9,0-14.9,0
		C638.3,88.4,638.4,87.8,638.5,87.2z"/>
	<path fill="#FFFFFF" d="M419.2,82.6c-1-1.8-2.2-3.5-3.3-5.2c-1.6-2.5-3.3-5-4.8-7.6c-1.7-3-4.4-4.7-7.4-6.1
		c-0.7-0.3-1.4-0.7-2.1-0.9c-2.2-0.6-4.4-1.2-6.5-1.8c-1.2-0.4-2.1-1.2-2.1-2.6c0-1.4,0.6-2.5,1.8-3c2.9-1.4,5.8-1.3,8.5,0.4
		c0.3,0.2,0.7,0.4,1,0.6c0.9-1.4,1.8-2.7,2.6-4.1c0.1-0.2,0-0.8-0.2-0.9c-1.1-0.7-2.2-1.4-3.4-1.8c-3.3-1-6.6-1-9.8,0.5
		c-1.8,0.8-3.4,1.8-4.6,3.4c-0.8,1.1-1.2,2.3-1.5,3.7c-0.5,2.3,0.1,5.5,2,7c2.9,2.3,8.4,3.7,10,4.2c1.8,0.5,3.6,0.9,5.1,2.1
		c1.5,1.1,2.4,2.6,2.9,4.3c0.2,0.9,0.1,2-0.9,2.5c-1.9,1-7.2-0.1-8.5-0.6c-2.1-0.8-4.1-1.9-6.5-3c0,1.8-0.1,3.4-0.1,5.2
		c0,0.4,0.2,0.6,0.3,0.6c5.3,2.9,16.5,6.8,18.8,7.3c1.9,0.4,4,0.5,6,0.8c1.1,0.2,2.1,0.1,3-0.4C419.8,86.9,420.9,85.5,419.2,82.6z"
		/>
</g>
<path fill="#FFFFFF" d="M713,2v131.3H2V2H713 M715,0H0v135.3h715V0L715,0z"/>
<g>
	<path fill="#FFFFFF" d="M76.3,166.2h-0.5c-0.4-2.5-2.1-3.4-4.5-3.4c-2.4,0-5.9,1.6-5.9,6.7c0,4.2,3,7.3,6.3,7.3
		c2.1,0,3.8-1.4,4.2-3.6l0.5,0.1l-0.5,3.1c-0.9,0.5-3.3,1.1-4.6,1.1c-4.9,0-8-3.2-8-7.9c0-4.3,3.8-7.4,8-7.4c1.7,0,3.3,0.5,5,1.1
		L76.3,166.2z"/>
	<path fill="#FFFFFF" d="M83.4,167.4c2.9,0,5.1,1.9,5.1,4.9c0,2.7-2.1,5-4.8,5c-2.8,0-5.1-1.9-5.1-4.9
		C78.6,169.7,80.6,167.4,83.4,167.4z M83.7,176.8c2.1,0,2.9-2.4,2.9-4.2c0-1.7-0.9-4.6-3.1-4.6c-2.1,0-2.9,2.4-2.9,4.2
		C80.5,174,81.5,176.8,83.7,176.8z"/>
	<path fill="#FFFFFF" d="M93.2,180.8c0,0.5,0.5,0.5,1,0.5h0.9v0.5c-0.9,0-1.8,0-2.7,0c-0.9,0-1.7,0-2.6,0v-0.5h0.8
		c0.8,0,0.9-0.4,0.9-0.7v-10c0-1.6-0.6-1.5-1.2-1.8v-0.3c0.8-0.4,1.6-0.8,2.5-1.1c0.1,0,0.1-0.1,0.2-0.1c0.1,0,0.2,0,0.2,0.2v1.5
		c0.8-0.7,1.9-1.6,3.2-1.6c2.4,0,3.9,2.3,3.9,4.5c0,2.9-2.3,5.4-5.2,5.4c-0.6,0-1.4-0.2-1.9-0.4V180.8z M95.1,168.8
		c-0.7,0-1.5,0.4-1.9,0.7v5.7c0.3,0.5,0.9,1.4,2.2,1.4c2,0,3.1-2.1,3.1-3.9C98.5,170.8,97.3,168.8,95.1,168.8z"/>
	<path fill="#FFFFFF" d="M104,171.2c0,0.2,0,0.5,0,1.2c0.1,2,1.4,3.6,3.1,3.6c1.2,0,2.1-0.6,2.8-1.4l0.3,0.3c-1,1.3-2.2,2.4-3.9,2.4
		c-3.3,0-4-3.2-4-4.6c0-4.1,2.8-5.3,4.2-5.3c1.7,0,3.5,1.1,3.5,3.3c0,0.1,0,0.3,0,0.4l-0.2,0.1H104z M107.7,170.6
		c0.5,0,0.6-0.3,0.6-0.5c0-1.1-0.7-1.9-1.8-1.9c-1.3,0-2.2,0.9-2.4,2.5H107.7z"/>
	<path fill="#FFFFFF" d="M113.1,170.2c0-0.8-0.2-1-1.2-1.4v-0.4c0.9-0.3,1.8-0.6,2.8-1c0.1,0,0.1,0,0.1,0.2v1.4
		c1.2-0.9,2.2-1.6,3.6-1.6c1.8,0,2.4,1.3,2.4,2.9v5.4c0,0.7,0.5,0.7,1,0.7h0.4v0.5c-0.7,0-1.5,0-2.2,0s-1.5,0-2.3,0v-0.5h0.4
		c0.6,0,1,0,1-0.7v-5.4c0-1.2-0.7-1.8-1.9-1.8c-0.7,0-1.7,0.5-2.4,1v6.2c0,0.7,0.5,0.7,1,0.7h0.4v0.5c-0.7,0-1.5,0-2.2,0
		s-1.5,0-2.3,0v-0.5h0.4c0.6,0,1,0,1-0.7V170.2z"/>
	<path fill="#FFFFFF" d="M125.5,164.1c0-1.4-0.3-1.4-1.1-1.6v-0.3c0.8-0.3,1.7-0.7,2.2-0.9c0.2-0.1,0.4-0.2,0.5-0.2
		c0.1,0,0.2,0.1,0.2,0.3v8c0.2-0.2,1.5-1.8,3.2-1.8c1.8,0,2.8,1.3,2.8,3.2v5.2c0,0.7,0.5,0.7,1,0.7h0.4v0.5c-0.7,0-1.5,0-2.3,0
		c-0.8,0-1.5,0-2.3,0v-0.5h0.4c1,0,1-0.2,1-2.3v-2.4c0-1.5-0.1-3.1-2.1-3.1c-1,0-1.8,0.7-2.3,1.2v5.9c0,0.7,0.5,0.7,1,0.7h0.4v0.5
		c-0.7,0-1.5,0-2.2,0s-1.5,0-2.3,0v-0.5h0.4c0.6,0,1,0,1-0.7V164.1z"/>
	<path fill="#FFFFFF" d="M145.4,176.2c-0.6,0.5-1.2,1.1-2.1,1.1c-0.9,0-1.3-0.8-1.3-1.6c-1,0.9-1.9,1.6-3.2,1.6
		c-1.3,0-2.3-0.9-2.3-2c0.1-1.7,0.9-2,5.5-3.5v-1.4c0-1.2-0.7-1.8-2-1.8c-0.9,0-1.6,0.5-1.6,1.5c0,0.6-0.7,0.9-1.2,0.9
		c-0.3,0-0.4-0.3-0.4-0.4c0-1.1,0.9-1.6,2.4-2.4c0.7-0.4,1.1-0.7,1.9-0.7c0.9,0,2.6,0.6,2.6,1.8v5.8c0,0.9,0.3,1.2,0.8,1.2
		c0.3,0,0.6-0.1,0.8-0.4L145.4,176.2z M142,172.4c-1.1,0.4-3.8,0.9-3.8,2.5c0,0.8,0.7,1.5,1.5,1.5c1,0,1.6-0.6,2.3-1.2V172.4z"/>
	<path fill="#FFFFFF" d="M156.3,169l-2.1-0.1c0.4,0.4,0.5,1,0.5,1.6c0,1.5-1.3,3.2-3.9,3.2c-0.3,0-0.7,0-1.2-0.1
		c-0.4,0.3-0.6,0.6-0.6,1.1c0,0.3,0.1,1,1.5,1c1,0,2.1,0,2.9,0c1.8,0,2.9,0.5,2.9,2.1c0,0.8-1.1,4-5.6,4c-2.7,0-4-1.2-4-2.4
		c0-1.3,1.2-2.2,2.5-2.4v0c-0.9-0.3-1.8-0.9-1.8-1.8c0-0.2,0-0.5,0.1-0.7c0.6-0.4,1.4-0.8,1.7-1c-1.2-0.6-2-1.4-2-2.8
		c0-1.8,1.3-3.2,3.9-3.2c0.6,0,1.3,0.1,1.8,0.3c0.6,0.2,1.2,0.4,2,0.4c0.4,0,0.7,0,1.2-0.1V169z M151.9,177c-1.4,0-3.5,0-3.5,2
		c0,1.4,1.3,2.1,2.8,2.1c1.3,0,3.7-0.5,3.7-2.4C154.8,177.2,153,177,151.9,177z M151,168c-1.3,0-1.8,1.3-1.8,2.4
		c0,1.2,0.5,2.8,2,2.8c1.4,0,2-1.2,2-2.5S152.4,168,151,168z"/>
	<path fill="#FFFFFF" d="M159.4,171.2c0,0.2,0,0.5,0,1.2c0.1,2,1.4,3.6,3.1,3.6c1.2,0,2.1-0.6,2.8-1.4l0.3,0.3
		c-1,1.3-2.2,2.4-3.9,2.4c-3.3,0-4-3.2-4-4.6c0-4.1,2.8-5.3,4.2-5.3c1.7,0,3.5,1.1,3.5,3.3c0,0.1,0,0.3,0,0.4l-0.2,0.1H159.4z
		 M163.1,170.6c0.5,0,0.6-0.3,0.6-0.5c0-1.1-0.7-1.9-1.8-1.9c-1.3,0-2.2,0.9-2.4,2.5H163.1z"/>
	<path fill="#FFFFFF" d="M168.6,170.2c0-0.8-0.2-1-1.2-1.4v-0.4c0.9-0.3,1.8-0.6,2.8-1c0.1,0,0.1,0,0.1,0.2v1.4
		c1.2-0.9,2.2-1.6,3.6-1.6c1.8,0,2.4,1.3,2.4,2.9v5.4c0,0.7,0.5,0.7,1,0.7h0.4v0.5c-0.7,0-1.5,0-2.2,0s-1.5,0-2.3,0v-0.5h0.4
		c0.6,0,1,0,1-0.7v-5.4c0-1.2-0.7-1.8-1.9-1.8c-0.7,0-1.7,0.5-2.4,1v6.2c0,0.7,0.5,0.7,1,0.7h0.4v0.5c-0.7,0-1.5,0-2.2,0
		s-1.5,0-2.3,0v-0.5h0.4c0.6,0,1,0,1-0.7V170.2z"/>
	<path fill="#FFFFFF" d="M179.4,167.5c1-0.3,2-0.9,2-2.1c0-0.8-0.5-0.9-1-0.9c-0.5,0-1.1-0.1-1.1-1.1c0-0.8,0.6-1.1,1.3-1.1
		c1.3,0,2,1.1,2,2.3c0,1.8-1.3,2.9-2.9,3.3L179.4,167.5z"/>
	<path fill="#FFFFFF" d="M184.1,174.1c0.3,1.4,1.1,2.6,2.6,2.6c1.2,0,1.7-0.8,1.7-1.5c0-2.5-4.6-1.7-4.6-5.1c0-1.2,0.9-2.7,3.3-2.7
		c0.7,0,1.6,0.2,2.4,0.6l0.1,2.1h-0.5c-0.2-1.3-0.9-2.1-2.3-2.1c-0.8,0-1.6,0.5-1.6,1.4c0,2.5,4.9,1.7,4.9,5c0,1.4-1.1,2.9-3.6,2.9
		c-0.8,0-1.8-0.3-2.6-0.7l-0.2-2.4L184.1,174.1z"/>
	<path fill="#FFFFFF" d="M73.9,200.9c0.3,0.8,0.9,2.6,1.2,3.1c0.3,0.4,0.9,0.6,1.6,0.6v0.5c-0.8,0-1.6,0-2.4,0c-1,0-2,0-3.1,0v-0.5
		h0.4c0.5,0,1.2-0.1,1.2-0.7c0-0.2-0.2-0.8-0.3-1.2l-1-3h-4.9l-0.5,1.5c-0.3,0.9-0.6,1.8-0.6,2.5c0,1,0.7,0.9,1.4,1h0.5v0.5
		c-0.8,0-1.7,0-2.5,0c-0.8,0-1.7,0-2.5,0v-0.5c1.3-0.1,1.5-0.3,2-1.5c0.3-0.8,0.6-1.6,0.9-2.4l2.7-7.5c0.2-0.5,0.4-1.3,0.4-1.9
		c0-0.2,0-0.4,0-0.5c0.4-0.2,0.9-0.4,1.2-0.9h0.4L73.9,200.9z M66.8,198.7h4.3l-2.2-6.2h0L66.8,198.7z"/>
	<path fill="#FFFFFF" d="M78.7,204.5h0.4c0.6,0,1,0,1-0.7v-11.7c0-1.4-0.3-1.4-1.1-1.6v-0.3c0.8-0.3,1.7-0.7,2.2-0.9
		c0.2-0.1,0.4-0.2,0.5-0.2c0.1,0,0.2,0.1,0.2,0.3v14.5c0,0.7,0.5,0.7,1,0.7h0.4v0.5c-0.7,0-1.4,0-2.2,0s-1.5,0-2.3,0V204.5z"/>
	<path fill="#FFFFFF" d="M87.3,202.5c0,1.4,0.8,1.8,1.3,1.8s1-0.2,1.5-0.6l0.3,0.3c-0.7,0.8-1.7,1.4-2.8,1.4c-1.3,0-2-0.7-2-2v-6.5
		h-1.4v-0.3c1.1-0.8,1.7-1.2,2.8-2.9h0.3v2.1h3.1v1.1h-3.1V202.5z"/>
	<path fill="#FFFFFF" d="M93.5,199.2c0,0.2,0,0.5,0,1.2c0.1,2,1.4,3.6,3.1,3.6c1.2,0,2.1-0.6,2.8-1.4l0.3,0.3
		c-1,1.3-2.2,2.4-3.9,2.4c-3.3,0-4-3.2-4-4.6c0-4.1,2.8-5.3,4.2-5.3c1.7,0,3.5,1.1,3.5,3.3c0,0.1,0,0.3,0,0.4l-0.2,0.1H93.5z
		 M97.2,198.6c0.5,0,0.6-0.3,0.6-0.5c0-1.1-0.7-1.9-1.8-1.9c-1.3,0-2.2,0.9-2.4,2.5H97.2z"/>
	<path fill="#FFFFFF" d="M101.1,204.5h0.6c0.6,0,1,0,1-0.7v-5.9c0-0.7-0.8-0.8-1.1-0.9v-0.3c1.5-0.7,2.4-1.2,2.6-1.2
		c0.1,0,0.2,0.1,0.2,0.3v1.9h0c0.5-0.8,1.4-2.2,2.7-2.2c0.5,0,1.2,0.4,1.2,1.1c0,0.6-0.4,1.1-1,1.1c-0.7,0-0.7-0.5-1.4-0.5
		c-0.4,0-1.5,0.5-1.5,1.7v4.9c0,0.7,0.4,0.7,1,0.7h1.2v0.5c-1.2,0-2,0-2.9,0c-0.9,0-1.7,0-2.5,0V204.5z"/>
	<path fill="#FFFFFF" d="M111.4,198.2c0-0.8-0.2-1-1.2-1.4v-0.4c0.9-0.3,1.8-0.6,2.8-1c0.1,0,0.1,0,0.1,0.2v1.4
		c1.2-0.9,2.2-1.6,3.6-1.6c1.8,0,2.4,1.3,2.4,2.9v5.4c0,0.7,0.5,0.7,1,0.7h0.4v0.5c-0.7,0-1.5,0-2.2,0s-1.5,0-2.3,0v-0.5h0.4
		c0.6,0,1,0,1-0.7v-5.4c0-1.2-0.7-1.8-1.9-1.8c-0.7,0-1.7,0.5-2.4,1v6.2c0,0.7,0.5,0.7,1,0.7h0.4v0.5c-0.7,0-1.5,0-2.2,0
		s-1.5,0-2.3,0v-0.5h0.4c0.6,0,1,0,1-0.7V198.2z"/>
	<path fill="#FFFFFF" d="M131.3,204.2c-0.6,0.5-1.2,1.1-2.1,1.1c-0.9,0-1.3-0.8-1.3-1.6c-1,0.9-1.9,1.6-3.2,1.6
		c-1.3,0-2.3-0.9-2.3-2c0.1-1.7,0.9-2,5.5-3.5v-1.4c0-1.2-0.7-1.8-2-1.8c-0.9,0-1.6,0.5-1.6,1.5c0,0.6-0.7,0.9-1.2,0.9
		c-0.3,0-0.4-0.3-0.4-0.4c0-1.1,0.9-1.6,2.4-2.4c0.7-0.4,1.1-0.7,1.9-0.7c0.9,0,2.6,0.6,2.6,1.8v5.8c0,0.9,0.3,1.2,0.8,1.2
		c0.3,0,0.6-0.1,0.8-0.4L131.3,204.2z M127.9,200.4c-1.1,0.4-3.8,0.9-3.8,2.5c0,0.8,0.7,1.5,1.5,1.5c1,0,1.6-0.6,2.3-1.2V200.4z"/>
	<path fill="#FFFFFF" d="M135.4,202.5c0,1.4,0.8,1.8,1.3,1.8s1-0.2,1.5-0.6l0.3,0.3c-0.7,0.8-1.7,1.4-2.8,1.4c-1.3,0-2-0.7-2-2v-6.5
		h-1.4v-0.3c1.1-0.8,1.7-1.2,2.8-2.9h0.3v2.1h3.1v1.1h-3.1V202.5z"/>
	<path fill="#FFFFFF" d="M140.2,204.5h0.4c0.6,0,1,0,1-0.7v-5.7c0-0.9-0.3-1-1.1-1.5v-0.3c1-0.3,2.2-0.7,2.2-0.8
		c0.1-0.1,0.3-0.1,0.4-0.1s0.1,0.1,0.1,0.3v8.1c0,0.7,0.5,0.7,1,0.7h0.4v0.5c-0.7,0-1.4,0-2.2,0s-1.5,0-2.3,0V204.5z M142.4,192.2
		c-0.5,0-1-0.5-1-1.1c0-0.5,0.5-1,1-1c0.5,0,1,0.4,1,1C143.4,191.7,143,192.2,142.4,192.2z"/>
	<path fill="#FFFFFF" d="M147.3,197.9c-0.6-1.6-0.8-1.6-1.6-1.6v-0.5c0.7,0,1.4,0,2.1,0c0.7,0,1.4,0,2.2,0v0.5
		c-0.9,0-1.2,0.1-1.2,0.6c0,0.3,0.3,1,0.7,2l1.5,4l1.7-4.3c0.2-0.6,0.4-1.1,0.4-1.6c0-0.4-0.2-0.5-1.1-0.6v-0.5c0.5,0,1,0,1.5,0
		c0.6,0,1.3,0,1.9,0v0.5c-1,0-1.3,0.6-1.7,1.5l-3,7.5h-0.5L147.3,197.9z"/>
	<path fill="#FFFFFF" d="M158.2,199.2c0,0.2,0,0.5,0,1.2c0.1,2,1.4,3.6,3.1,3.6c1.2,0,2.1-0.6,2.8-1.4l0.3,0.3
		c-1,1.3-2.2,2.4-3.9,2.4c-3.3,0-4-3.2-4-4.6c0-4.1,2.8-5.3,4.2-5.3c1.7,0,3.5,1.1,3.5,3.3c0,0.1,0,0.3,0,0.4l-0.2,0.1H158.2z
		 M161.9,198.6c0.5,0,0.6-0.3,0.6-0.5c0-1.1-0.7-1.9-1.8-1.9c-1.3,0-2.2,0.9-2.4,2.5H161.9z"/>
	<path fill="#FFFFFF" d="M183.7,200.9c0.3,0.8,0.9,2.6,1.2,3.1c0.3,0.4,0.9,0.6,1.6,0.6v0.5c-0.8,0-1.6,0-2.4,0c-1,0-2,0-3.1,0v-0.5
		h0.4c0.5,0,1.2-0.1,1.2-0.7c0-0.2-0.2-0.8-0.3-1.2l-1-3h-4.9l-0.5,1.5c-0.3,0.9-0.6,1.8-0.6,2.5c0,1,0.7,0.9,1.4,1h0.5v0.5
		c-0.8,0-1.7,0-2.5,0c-0.8,0-1.7,0-2.5,0v-0.5c1.3-0.1,1.5-0.3,2-1.5c0.3-0.8,0.6-1.6,0.9-2.4l2.7-7.5c0.2-0.5,0.4-1.3,0.4-1.9
		c0-0.2,0-0.4,0-0.5c0.4-0.2,0.9-0.4,1.2-0.9h0.4L183.7,200.9z M176.6,198.7h4.3l-2.2-6.2h0L176.6,198.7z"/>
	<path fill="#FFFFFF" d="M188.4,204.5h0.6c0.6,0,1,0,1-0.7v-5.9c0-0.7-0.8-0.8-1.1-0.9v-0.3c1.5-0.7,2.4-1.2,2.6-1.2
		c0.1,0,0.2,0.1,0.2,0.3v1.9h0c0.5-0.8,1.4-2.2,2.7-2.2c0.5,0,1.2,0.4,1.2,1.1c0,0.6-0.4,1.1-1,1.1c-0.7,0-0.7-0.5-1.4-0.5
		c-0.4,0-1.5,0.5-1.5,1.7v4.9c0,0.7,0.4,0.7,1,0.7h1.2v0.5c-1.2,0-2,0-2.9,0c-0.9,0-1.7,0-2.5,0V204.5z"/>
	<path fill="#FFFFFF" d="M200.3,202.5c0,1.4,0.8,1.8,1.3,1.8s1-0.2,1.5-0.6l0.3,0.3c-0.7,0.8-1.7,1.4-2.8,1.4c-1.3,0-2-0.7-2-2v-6.5
		h-1.4v-0.3c1.1-0.8,1.7-1.2,2.8-2.9h0.3v2.1h3.1v1.1h-3.1V202.5z"/>
	<path fill="#FFFFFF" d="M217.2,195.8v1.1h-2.7v7.1c0,0.5,0.5,0.5,1,0.5h0.9v0.5c-0.9,0-1.8,0-2.7,0c-0.9,0-1.7,0-2.6,0v-0.5h0.8
		c0.8,0,0.9-0.4,0.9-0.7v-6.9h-1.5v-0.4c0.5-0.3,1.5-0.6,1.5-1.3c0-1.4,0.4-3.4,1.7-4.8c1.2-1.2,2.2-1.4,2.5-1.4
		c0.4,0,0.9,0.1,0.9,0.9c0,0.5-0.2,0.8-0.7,0.8c-0.3,0-0.5-0.1-0.6-0.1c-0.2-0.1-0.4-0.1-0.7-0.1c-1.3,0-1.4,1.5-1.4,2.4v3H217.2z"
		/>
	<path fill="#FFFFFF" d="M227.4,204.2c-0.6,0.5-1.2,1.1-2.1,1.1c-0.9,0-1.3-0.8-1.3-1.6c-1,0.9-1.9,1.6-3.2,1.6
		c-1.3,0-2.3-0.9-2.3-2c0.1-1.7,0.9-2,5.5-3.5v-1.4c0-1.2-0.7-1.8-2-1.8c-0.9,0-1.6,0.5-1.6,1.5c0,0.6-0.7,0.9-1.2,0.9
		c-0.3,0-0.4-0.3-0.4-0.4c0-1.1,0.9-1.6,2.4-2.4c0.7-0.4,1.1-0.7,1.9-0.7c0.9,0,2.6,0.6,2.6,1.8v5.8c0,0.9,0.3,1.2,0.8,1.2
		c0.3,0,0.6-0.1,0.8-0.4L227.4,204.2z M224,200.4c-1.1,0.4-3.8,0.9-3.8,2.5c0,0.8,0.7,1.5,1.5,1.5c1,0,1.6-0.6,2.3-1.2V200.4z"/>
	<path fill="#FFFFFF" d="M229.4,204.5h0.4c0.6,0,1,0,1-0.7v-5.7c0-0.9-0.3-1-1.1-1.5v-0.3c1-0.3,2.2-0.7,2.2-0.8
		c0.1-0.1,0.3-0.1,0.4-0.1s0.1,0.1,0.1,0.3v8.1c0,0.7,0.5,0.7,1,0.7h0.4v0.5c-0.7,0-1.4,0-2.2,0s-1.5,0-2.3,0V204.5z M231.6,192.2
		c-0.5,0-1-0.5-1-1.1c0-0.5,0.5-1,1-1c0.5,0,1,0.4,1,1C232.7,191.7,232.2,192.2,231.6,192.2z"/>
	<path fill="#FFFFFF" d="M235.7,204.5h0.6c0.6,0,1,0,1-0.7v-5.9c0-0.7-0.8-0.8-1.1-0.9v-0.3c1.5-0.7,2.4-1.2,2.6-1.2
		c0.1,0,0.2,0.1,0.2,0.3v1.9h0c0.5-0.8,1.4-2.2,2.7-2.2c0.5,0,1.2,0.4,1.2,1.1c0,0.6-0.4,1.1-1,1.1c-0.7,0-0.7-0.5-1.4-0.5
		c-0.4,0-1.5,0.5-1.5,1.7v4.9c0,0.7,0.4,0.7,1,0.7h1.2v0.5c-1.2,0-2,0-2.9,0c-0.9,0-1.7,0-2.5,0V204.5z"/>
</g>
<g>
	<path fill="#FFFFFF" d="M398,190.5h5.3l-0.4,1.7h-4.7l-0.8,2.2c2.5,1.3,4.9,2.6,4.9,5.8c0,3-2.4,5.1-5.3,5.1c-1.1,0-3-0.6-3-1.7
		c0-0.5,0.4-0.6,0.7-0.6c0.9,0,0.8,1.6,2.8,1.6c2,0,3.2-1.6,3.2-3.5c0-2.9-2.3-4.1-4.6-5.2L398,190.5z"/>
</g>
<g>
	<path fill="#FFFFFF" d="M606.3,190.5h9.5l0.2,0.2l-7.5,14.6l-0.9-0.3l6.7-12.8h-7.4l-0.6,1.2l-0.5-0.1L606.3,190.5z"/>
	<path fill="#FFFFFF" d="M623.8,201.6h0.5c0.4,1.6,1.5,3.1,3.3,3.1c1.6,0,2.9-1.1,2.9-2.8c0-3.9-6.2-2.8-6.2-7.7
		c0-2.7,1.9-4.1,4.5-4.1c0.9,0,1.7,0.2,2.6,0.3l0.3,2.7h-0.5c-0.2-1.5-1.2-2.3-2.7-2.3c-1.6,0-2.5,1.2-2.5,2.7
		c0,3.9,6.5,2.8,6.5,7.7c0,2.7-2.5,4.3-4.9,4.3c-1.1,0-2.2-0.3-3.2-0.7L623.8,201.6z"/>
	<path fill="#FFFFFF" d="M636.5,199.2c0,0.2,0,0.5,0,1.2c0.1,2,1.4,3.6,3.1,3.6c1.2,0,2.1-0.6,2.8-1.4l0.3,0.3
		c-1,1.3-2.2,2.4-3.9,2.4c-3.3,0-4-3.2-4-4.6c0-4.1,2.8-5.3,4.2-5.3c1.7,0,3.5,1.1,3.5,3.3c0,0.1,0,0.3,0,0.4l-0.2,0.1H636.5z
		 M640.2,198.6c0.5,0,0.6-0.3,0.6-0.5c0-1.1-0.7-1.9-1.8-1.9c-1.3,0-2.2,0.9-2.4,2.5H640.2z"/>
	<path fill="#FFFFFF" d="M647.4,208.8c0,0.5,0.5,0.5,1,0.5h0.9v0.5c-0.9,0-1.8,0-2.7,0c-0.9,0-1.7,0-2.6,0v-0.5h0.8
		c0.8,0,0.9-0.4,0.9-0.7v-10c0-1.6-0.6-1.5-1.2-1.8v-0.3c0.8-0.4,1.6-0.8,2.5-1.1c0.1,0,0.1-0.1,0.2-0.1c0.1,0,0.2,0,0.2,0.2v1.5
		c0.8-0.7,1.9-1.6,3.2-1.6c2.4,0,3.9,2.3,3.9,4.5c0,2.9-2.3,5.4-5.2,5.4c-0.6,0-1.4-0.2-1.9-0.4V208.8z M649.2,196.8
		c-0.7,0-1.5,0.4-1.9,0.7v5.7c0.3,0.5,0.9,1.4,2.2,1.4c2,0,3.1-2.1,3.1-3.9C652.7,198.8,651.5,196.8,649.2,196.8z"/>
	<path fill="#FFFFFF" d="M656.7,204c0-0.7,0.7-1.4,1.4-1.4c0.7,0,1.4,0.7,1.4,1.4s-0.6,1.4-1.4,1.4
		C657.3,205.4,656.7,204.7,656.7,204z"/>
</g>
<rect x="412.8" y="201" fill="#FFFFFF" width="183" height="2"/>
<g>
	<path fill="#FFFFFF" d="M91.5,85l-3.3-8.1H74.9L71.7,85H67l13-31.5h3.1L96.2,85H91.5z M81.6,61l-4.9,11.7h9.7L81.6,61z"/>
	<path fill="#FFFFFF" d="M101.8,85v-32h4.3v32H101.8z"/>
	<path fill="#FFFFFF" d="M127.4,81.2l0.9,3.9c-0.9,0.3-2,0.5-3.3,0.5c-2.5,0-4.5-0.8-6-2.5c-1.1-1.3-1.7-3.1-1.7-5.6v-9.7h-5.4v-3.8
		h5.4V58h4.3v5.9h6.8v3.8h-6.8v9.9c0,1.3,0.2,2.2,0.6,2.7c0.6,0.8,1.6,1.1,2.9,1.1C126,81.4,126.8,81.4,127.4,81.2z"/>
	<path fill="#FFFFFF" d="M143.4,85h20.2v3.6h-20.2V85z"/>
	<path fill="#FFFFFF" d="M167.5,69.3c0-4.6,1.5-8.4,4.6-11.5c3-3.1,6.8-4.7,11.4-4.7c2.2,0,4.4,0.4,6.4,1.3s3.7,2,5.1,3.6l-3,3
		c-1-1-2.2-1.9-3.7-2.6c-1.5-0.7-3.1-1-4.8-1c-3.2,0-6,1.1-8.1,3.4c-2.2,2.3-3.3,5.1-3.3,8.5c0,3.5,1.1,6.4,3.4,8.6s5.1,3.3,8.5,3.3
		c3.6,0,6.6-1.5,9-4.5l3.2,2.9c-1.4,1.8-3.2,3.2-5.4,4.3c-2.2,1.1-4.5,1.6-6.9,1.6c-4.7,0-8.6-1.5-11.7-4.6
		C169,77.8,167.5,74,167.5,69.3z"/>
	<path fill="#FFFFFF" d="M206,83.2v12.6h-4.3V63.9h4.1v1.9c1.9-1.6,4.1-2.4,6.6-2.4c1.9,0,3.6,0.5,5.2,1.4c1.6,1,3,2.3,4,4
		c1,1.7,1.5,3.6,1.5,5.7c0,2.1-0.5,4-1.5,5.6c-1,1.7-2.3,3-3.9,4c-1.6,0.9-3.3,1.4-5.3,1.4C209.9,85.5,207.7,84.7,206,83.2z
		 M206,70.5v7.9c1.5,2,3.4,3,5.8,3c2,0,3.7-0.7,5-2c1.3-1.4,2-3,2-4.9c0-1.9-0.6-3.6-1.9-4.9c-1.3-1.4-2.9-2-4.9-2
		C209.5,67.5,207.5,68.5,206,70.5z"/>
	<path fill="#FFFFFF" d="M234.4,53.1v12.6c1.8-1.5,3.9-2.3,6.2-2.3c3.2,0,5.7,1.2,7.7,3.7c1.4,1.7,2.1,4.2,2.1,7.5V85h-4.3V74.5
		c0-2.2-0.4-3.9-1.3-4.9c-1.1-1.4-2.5-2.1-4.4-2.1c-2.4,0-4.4,1-6.1,3V85h-4.3v-32H234.4z"/>
	<path fill="#FFFFFF" d="M273.5,59.2l-6.1,3.1v-4.5l7.4-4.2h3.2V85h-4.5V59.2z"/>
	<path fill="#FFFFFF" d="M284.8,77.4v-2.9L301,53.5h3.1v19.6h5v4.3h-5V85h-4.5v-7.6H284.8z M291.2,73.1h8.5V62.5L291.2,73.1z"/>
</g>
</svg>
