<?xml version="1.0" encoding="utf-8"?>
<!-- Generator: Adobe Illustrator 18.0.0, SVG Export Plug-In . SVG Version: 6.00 Build 0)  -->
<!DOCTYPE svg PUBLIC "-//W3C//DTD SVG 1.1//EN" "http://www.w3.org/Graphics/SVG/1.1/DTD/svg11.dtd">
<svg version="1.1" id="Layer_1" xmlns="http://www.w3.org/2000/svg" xmlns:xlink="http://www.w3.org/1999/xlink" x="0px" y="0px"
	 viewBox="0 0 620.1 745.2" enable-background="new 0 0 620.1 745.2" xml:space="preserve">
<path fill="#FFFFFF" d="M608,15.9v595H13v-595H608 M610,12.9H10v600h600V12.9L610,12.9z"/>
<g>
	<path fill="#FFFFFF" d="M87.1,534.6l-6.5,2.7v10.6l6.5,2.6v3.7l-25.2-10.4v-2.5l25.2-10.4V534.6z M67.9,542.6l9.3,3.9v-7.8
		L67.9,542.6z"/>
	<path fill="#FFFFFF" d="M87.1,526.9H61.6v-3.4h25.5V526.9z"/>
	<path fill="#FFFFFF" d="M84,507l3.1-0.7c0.2,0.7,0.4,1.6,0.4,2.7c0,2-0.7,3.6-2,4.8c-1,0.9-2.5,1.4-4.5,1.4h-7.7v4.3h-3.1v-4.3
		h-4.7v-3.4h4.7v-5.4h3.1v5.4h7.9c1.1,0,1.8-0.2,2.2-0.5c0.6-0.5,0.9-1.3,0.9-2.3C84.2,508.1,84.1,507.5,84,507z"/>
	<path fill="#FFFFFF" d="M87.1,493.2V477H90v16.2H87.1z"/>
	<path fill="#FFFFFF" d="M74.5,474.3c-3.6,0-6.7-1.2-9.2-3.6c-2.5-2.4-3.7-5.5-3.7-9.1c0-1.8,0.3-3.5,1-5.1s1.6-3,2.9-4.1l2.4,2.4
		c-0.8,0.8-1.5,1.8-2,3s-0.8,2.5-0.8,3.8c0,2.6,0.9,4.8,2.7,6.5c1.8,1.7,4.1,2.6,6.8,2.6c2.8,0,5.1-0.9,6.9-2.7
		c1.8-1.8,2.7-4,2.7-6.8c0-2.9-1.2-5.3-3.6-7.2l2.3-2.6c1.4,1.1,2.5,2.5,3.4,4.3c0.9,1.7,1.3,3.6,1.3,5.5c0,3.8-1.2,6.9-3.7,9.3
		C81.3,473.1,78.2,474.3,74.5,474.3z"/>
	<path fill="#FFFFFF" d="M85.6,443.6h10.1v3.4H70.2v-3.3h1.5c-1.3-1.5-1.9-3.2-1.9-5.3c0-1.5,0.4-2.9,1.1-4.1
		c0.8-1.3,1.8-2.4,3.2-3.2c1.4-0.8,2.9-1.2,4.5-1.2c1.7,0,3.2,0.4,4.5,1.2s2.4,1.8,3.2,3.1c0.7,1.2,1.1,2.7,1.1,4.2
		C87.4,440.5,86.8,442.2,85.6,443.6z M75.5,443.6h6.3c1.6-1.2,2.4-2.7,2.4-4.6c0-1.6-0.5-2.9-1.6-4c-1.1-1.1-2.4-1.6-3.9-1.6
		s-2.8,0.5-3.9,1.5c-1.1,1-1.6,2.3-1.6,3.9C73.1,440.7,73.9,442.3,75.5,443.6z"/>
	<path fill="#FFFFFF" d="M61.6,421.1h10.1c-1.2-1.4-1.8-3.1-1.8-5c0-2.5,1-4.6,3-6.1c1.4-1.1,3.4-1.7,6-1.7h8.3v3.4h-8.4
		c-1.8,0-3.1,0.3-3.9,1c-1.1,0.9-1.7,2-1.7,3.5c0,1.9,0.8,3.5,2.4,4.9h11.6v3.4H61.6V421.1z"/>
	<path fill="#FFFFFF" d="M66.4,389.7l2.4,4.9h-3.6l-3.4-5.9v-2.5h25.2v3.6H66.4z"/>
	<path fill="#FFFFFF" d="M81,380.5h-2.3l-16.7-12.9v-2.5h15.6v-4H81v4h6.1v3.6H81V380.5z M77.6,375.4v-6.8h-8.5L77.6,375.4z"/>
</g>
<g>
	<path fill="#FFFFFF" d="M379,451.7c-1-4.6-1.5-9.4-3.1-13.8c-2.9-8.1-6.7-15.9-9.9-23.9c-4.1-10.3-8-20.6-12-30.9
		c-2.9-7.4-8.2-12.7-15-16.4c-10.3-5.6-21.1-10.3-31.1-16.3c-9.9-5.9-19.4-12.6-28.7-19.4c-6.7-4.9-12.5-10.9-19.2-15.7
		c-6.1-4.4-12.5-8.4-19.2-11.6c-11.7-5.7-23.6-11-35.7-15.7c-7.6-2.9-38-12.8-56.9-7.8c-8.2,2.2-6,14.3-5.3,15.7
		c-12.2-7.2-23.4-15.3-32.3-26c-14.2-17.2-24.4-36.4-27.5-58.1c-8.1,0-15.6,0-24.7,0c3.9,12.4,6.3,24,11.1,34.6
		c10,21.9,25.4,39.8,45.7,52.9c23.3,15,43.3,33.2,58.7,56.3c5.7,8.5,13.4,14.8,22.5,19.2c13.6,6.6,27.6,12.6,41.4,18.7
		c14.5,6.4,24.8,16.9,30,31.8c4.8,13.8,5.4,28.3,5.3,42.8c-0.1,17.7-0.5,35.4-0.7,53.1c-0.1,9.6,0,19.2,0,28.7c8,0,14.8,0,21.9,0
		c0-4.1,0-7.9,0-12.8c8.9,11.9,26.3,17.8,40.5,14.1c17.9-4.7,30.6-15.1,38.1-32.5c5.4-12.4,7.7-25.1,7.9-38.4
		C380.7,472.4,379.4,453.4,379,451.7z M358.5,480.6c-1,6.9-3.1,13.7-4.9,20.4c-2,7.2-6.6,12.7-12,17.5c-5.3,4.7-17.4,8.6-27.4,3.8
		c-9.4-4.5-16.7-11.6-19.8-20.8c-2.3-6.8,1.5-39.5,0-53c-0.8-6.7,1-12.9,2.1-19.3c1.6-9-2.1-16.8-8.7-22.7
		c-13.8-12.3-29.8-20.7-47.2-27.1c-14.3-5.3-28.4-11.7-39.2-23.3c-4.5-4.8-8.6-10-12.1-15.5c-3.8-6-1.9-18.1,3.6-21.4
		c0,0,14.3-7.5,34.5,1c10.4,4.4,20,10,29.1,16.7c8.6,6.4,17.2,12.9,26.3,18.5c9.5,5.9,19.8,10.6,29.5,16.3
		c9.1,5.3,14.6,13.9,16.3,24c1.6,9.5,5,17.8,10.5,25.5c3,4.3,6,8.6,9,12.8c5.9,8.1,9,17.5,10.8,27.1
		C360,467.3,359.4,474.2,358.5,480.6z"/>
	<path fill="#FFFFFF" d="M428.3,428.2c0.1-13.3,0.3-26.6-3.3-39.5c-2.6-9.6-6.7-18.3-13.6-25.7c-6.5-6.9-14.6-10.9-23.1-14.6
		c-11.7-5-23.4-10.2-35-15.6c-16-7.5-25-22.1-35.5-35.2c-5.7-7.1-11.5-14.3-18.4-20.1c-12-10.1-24.9-19.1-37.4-28.6
		c-12.9-9.8-23-21.9-30.6-36.2c-1.4-2.7-3.7-6.6-6-6.8c-7.3-0.9-14.9-0.3-23.7-0.3c3.9,6.6,7.1,11.7,9.9,17
		c6.3,11.7,14.7,21.7,24.9,30c11.7,9.5,23.9,18.5,36.1,27.4c12.8,9.4,22.4,21.8,31.5,34.4c7.6,10.4,16.2,19.3,27.9,24.8
		c12.6,5.9,25.5,11.4,38.3,16.9c11.1,4.8,20.6,11.8,26.4,22.3c8.2,15,10,31.6,9.7,48.5c-0.2,9.6-0.5,19.3-0.5,28.9
		c0.1,13.9,0.6,27.7,0.6,41.6c0,14.8-0.5,29.6-0.6,44.4c0,1.1,1.4,3.1,2.1,3.1c6.4,0,19.7,0,19.7,0s0.1-6.2,0.2-8.7
		c0.3-19,0.8-38.1,0.9-57.1C428.6,462.1,428.1,445.2,428.3,428.2z"/>
	<path fill="#FFFFFF" d="M491.9,516c-10.4-6.2-17.7-22.3-15.6-35.8c26.9,0,54.1,0,82.1,0c-0.9-11.5-1-20.8-3.2-30.1
		c-2.2-9.3-6.1-18.3-10.3-26.9c-5.6-11.4-13.6-21.2-26.2-25c-6.6-2-14.1-3.1-20.9-2.1c-11.2,1.6-19.6,9-26.3,17.9
		c-6.5,8.5-11.7,17.7-14.1,28.2c-1.7,7.3-3.3,14.7-3.6,22.1c-0.3,9,0.9,18.1,1.7,27.1c1,11.3,4.2,21.9,10.9,31.3
		c8.1,11.5,19.6,17.7,33.2,18.5c7.7,0.5,15.8-1,23.3-3.1c12.5-3.5,21.8-11.9,28.3-20.8c-4.4-4.7-8.7-9.1-13.1-13.7
		C522,522.6,504.4,523.3,491.9,516z M478.1,447.6c2.5-8.3,7.4-15.3,14.1-20.6c2.9-2.3,7.4-3.4,11.2-3.7c4.2-0.4,9.1-0.3,12.5,1.6
		c10,5.4,14.7,15.3,18.4,25.6c0.5,1.3,0.9,2.9,0.9,4.8c-19.2,0-39,0-58.8,0C477.1,452.2,477.5,449.9,478.1,447.6z"/>
	<g>
		<path fill="#FFFFFF" d="M545.6,169.3c-6.7-3-13.6-5.7-20.3-8.9c-5.1-2.5-10.1-5.4-13.5-10.1c-4.3-6-9-11.8-14.7-16.6
			c-4.7-3.9-9.7-7.5-14.9-10.7c-5.2-3.2-10.8-5.8-16.2-8.6c-6.6-3.4-13.2-6.9-19.9-10.2c-7.9-3.9-16.4-5.3-25-3
			c-2.9,0.8-5.8,2.8-8,5c-1.8,1.8-2.6,4.5-3.7,6.6c-4.2-2.3-8.3-4.5-12.4-6.8c-6.6-3.6-13.8-6.1-21.2-4.3
			c-7.2,1.7-10.4,5.7-13.4,7.9c-0.6-1.7-1.4-3.9-2-5.6c-3.9,0-13,0-12.9,0.3c1.2,3.7,2.6,8.7,4.4,12.1c3.1,5.8,6.7,11.2,11.2,16.2
			c4.7,5.3,10.3,9.3,15.8,13.4c6.9,5,14.3,9.4,19.8,16.2c4.2,5.1,8.5,10.1,12.6,15.3c3.4,4.3,7.4,7.9,12.3,10.2
			c8,3.8,16.1,7.2,24.2,10.9c7.9,3.6,12.6,10.2,14.6,18.4c1.2,4.8,1.7,9.8,2,14.7c0.3,5.1,0.1,10.2,0,15.3c0,1.3,0.2,1.9,1.7,1.9
			c3.4-0.1,6.9,0,10.4,0c0.1-0.6,0.3-1.1,0.3-1.6c0.4-9.8,0.7-19.6-0.9-29.3c-1.9-11.6-8-20.2-19.2-24.6c-5.3-2.1-10.5-4.1-15.7-6.5
			c-8.3-3.9-15.7-8.8-20.8-16.7c-7-10.7-16.2-19.2-26.9-26.3c-6-4-11.2-9.1-16.9-13.5c-4-3.1-2.4-7.5-0.2-10.7
			c1.9-2.7,4.9-3.6,7.9-3.8c2.3-0.2,4.6,0.4,6.9,0.9c6.9,1.4,12.7,5.2,18.5,8.9c3.7,2.3,7.3,4.9,11,7.3c3,1.9,6.1,3.4,9,5.4
			c2.5,1.7,4.6,3.8,7,5.6c5.8,4.4,9.9,10.2,14.3,15.8c3.5,4.5,6.7,9.1,11.6,12.4c8.3,5.5,17.7,8.6,26.6,12.8
			c3.6,1.7,7.3,3.9,10.1,6.7c5.7,5.7,7.7,13.2,8.9,20.9c0.5,3.2,0.5,6.5,0.5,9.7c0,4.8-0.1,9.7-0.2,14.5c0,4,0,8,0,12.4
			c3.7,0,7.2,0,10.7,0c1.4,0,1.6-0.7,1.5-1.9c0-4,0-8,0-12.1c0.3-11.6,1.2-23.2-2.1-34.6c-2.4-8.2-7.2-14.4-14.9-18
			c-6.4-3.1-13.2-5.6-19.6-8.6c-5.9-2.8-11.7-5.8-15.9-11c-6.8-8.4-12.4-17.8-21.6-23.9c-3.1-2.1-6-4.6-9.3-6.3
			c-3.8-2-5.5-5.5-6.6-9c-1.2-3.9,3.2-7.9,8.2-8c5.4-0.1,10.3,1.9,15.1,3.8c9.9,3.9,19.4,8.5,28.2,14.6c6.7,4.7,10.8,11.3,15.9,17.3
			c2.1,2.5,4,5.2,6.5,7.2c7.4,5.7,16.2,8.9,24.8,12.3c3.8,1.5,7.6,3.2,10.9,5.6c5.4,4,8.7,9.7,10.4,16.2c1.4,5.1,2.2,10.2,1.9,15.5
			c-0.3,4.3,0,8.7,0,13.1c0,8.9,0,17.8,0,26.7c0,0.9,1,1.5,1.6,1.5c2.9,0.3,5.9,0.2,8.9,0.4c1.6,0.1,2.2-0.2,2.2-2.1
			c-0.2-12.7-0.6-25.5,0-38.2c0.5-10.5-2.1-20-6.3-29.2C556.4,174.8,551.1,171.8,545.6,169.3z"/>
		<path fill="#FFFFFF" d="M370.7,177.9c-2.4,3-6.2,4.3-10,4c-4.1-0.3-12.8-3.4-17.5-5.8c-9.6-4.9-19.2-10-28.5-15.4
			c-4.9-2.8-16.2-10.4-16.9-13.5c21.3,1.1,43.5,2.4,65.2,3.5c-0.5-0.4-0.7-0.6-0.9-0.8c-4.1-3.1-8.5-5.9-12.3-9.3
			c-3.6-3.2-6.6-7-10-10.5c-2.4-2.5-4.9-4.9-7.4-7.4c-4.6-4.7-9.1-9.4-14.7-13.2c-7.9-5.4-16.4-6.5-25.4-4c-2.7,0.7-5.4,2-7.7,3.7
			c-2.3,1.7-4.3,4.1-6.1,6.5c-2.8,3.8-4.1,8.2-4,12.9c0.1,7.3,3.7,13.3,8,18.7c3.1,3.9,7,7.2,10.9,10.4c4.1,3.3,8.5,6.2,13,9
			c5.1,3.2,10.5,5.9,15.7,8.9c6.5,3.8,12.8,8,19.4,11.6c10.8,5.8,22.3,7.9,34.3,5c6.7-1.6,12-5.4,16.4-11.4
			c-6.5-3.8-12.8-7.5-18.8-11.1C373.4,172.8,372.3,175.8,370.7,177.9z M292.5,133.6c-3.2,0.1-4.2-0.4-3.8-4.2
			c0.6-5.7,4.1-12.5,14.3-12.4c6.3,0,10.9,3.3,15.5,6.8c2.1,1.6,3.9,3.5,5.7,5.3c1.1,1.1,2.1,2.4,3.1,3.6c-0.1,0.2-0.2,0.5-0.3,0.7
			c-4.1,0-8.1,0-12.2,0C307.4,133.4,299.9,133.5,292.5,133.6z"/>
		<path fill="#FFFFFF" d="M146.5,175.8c-6.3-6-10.7-13.3-14.9-20.7c-2.2-3.8-3.8-8-5.5-12c-1.4-3.4-2.7-6.9-4-10.4
			c-1.1-3.1-2.3-6.2-3.3-9.4c-1.1-3.5-2-7.1-3.1-10.7c-0.8-2.9-1.7-5.8-2.5-8.8c-1.7-5.7-3.3-11.5-5-17.2c-0.2-0.7-0.4-1.5-0.7-2.1
			c-1.3-2.4-5.3-1.9-5.9-1.9c-1.5,0.1-3.2,0.3-4.1,2.5c-2.1,4.9-4.5,9.7-6.7,14.5c-3.6,7.6-7.2,15.1-10.8,22.7c-2.4,5-5,10-7.4,15
			c-1.6,3.5-3.2,7-4.6,10.6c-1.7,4.5-3.3,9.1-4.8,13.7c-1.2,3.6-2.6,7.3-3.4,11c-1,4.5-1.4,9-2.2,14c3.6,0,7,0,10.4,0
			c4.6,0,4.8,0.1,4.9-4.4c0.1-7.8,2.5-15.1,4.4-22.5c0.2-0.8,1.4-1.7,2.2-1.8c12.1-0.6,24.3-1.1,36.4-1.6c1.3-0.1,2,0.4,2.6,1.5
			c1.4,2.7,12.8,19.5,18.3,25c2.3,2.3,4.4,4.6,8.2,4.7c2.4,0.1,11.2,0.1,13.7,0.1C156.9,186,149.2,178.4,146.5,175.8z M82.4,144.2
			c6-12.7,11.8-24.7,17.5-36.8c0.2,0.1,0.4,0.3,0.7,0.4c3.6,11.5,7.1,23,10.8,34.9C102.2,143.2,92.7,143.7,82.4,144.2z"/>
		<path fill="#FFFFFF" d="M296.6,174.8c-3.3-2.5-6.7-4.7-10-7.2c-2.6-1.9-5.2-3.9-7.7-6.1c-5.3-4.6-10.2-9.5-15.8-13.7
			c-3.7-2.8-8.1-4.7-12.4-6.7c-3.4-1.5-7-2.5-10.5-3.6c-3.8-1.2-7.7-2-11.4-3.3c-2.2-0.8-4-2.3-4.6-4.9c-1.4-5.9,3.2-8.7,7.9-9.4
			c4.5-0.6,10.7,0.5,16.5,4.1c1.7-3.1,5.4-10.2,4.9-10.5c-4.6-3.4-14-8-25.2-5.6c-13.8,2.9-17.9,14.6-17.3,21.3
			c0.6,6.7,4.6,11.4,10.2,15c6.7,4.2,14.5,5.1,21.8,7.3c5.9,1.8,12,3.4,16.7,7.4c5,4.2,9.7,9,14.4,13.6c1.9,1.9,2.1,4.3,0.4,5.3
			c-1.1,0.6-2.6,1-3.8,0.9c-1.9-0.2-3.7-0.9-5.6-1.3c-4.6-1.1-9.5-1.6-13.9-3.3c-5.7-2.1-11.1-5-16.7-7.5c-1.4-0.7-2.8-1.4-4.5-2.3
			c0.3,0.9,1.6,4.4,2.1,5.7c1.7,4.9,9.1,11.6,9.1,11.6s11.1,5.2,16.9,7.3c7.1,2.7,14.3,4.9,21.5,7.3c5.1,1.6,19.9,2.1,24.2-2.6
			c2.2-2.4,2.7-6.1,1.5-8.5C303.3,180.7,300.2,177.5,296.6,174.8z"/>
		<path fill="#FFFFFF" d="M220.1,183.6c-2.2-3.9-4.8-7.6-7.2-11.3c-3.5-5.5-7.2-10.9-10.4-16.5c-3.8-6.6-9.6-10.3-16.2-13.4
			c-1.5-0.7-3-1.5-4.6-2c-4.7-1.4-9.5-2.6-14.3-4c-2.7-0.8-4.5-2.6-4.5-5.7c-0.1-3,1.3-5.4,3.9-6.7c6.3-3.1,12.6-2.8,18.6,1
			c0.7,0.5,1.5,0.9,2.3,1.4c1.9-3,3.9-5.9,5.6-8.9c0.3-0.5,0-1.8-0.4-2.1c-2.4-1.5-4.8-3.2-7.5-4c-7.2-2.3-14.4-2.1-21.4,1.1
			c-3.8,1.8-7.5,3.8-10.1,7.4c-1.8,2.5-2.6,5.1-3.3,8.1c-1.2,5.1,0.3,12,4.3,15.2c6.4,4.9,18.2,8,21.8,9.1c3.9,1.2,7.8,2,11.1,4.6
			c3.2,2.5,5.2,5.7,6.3,9.5c0.5,1.9,0.2,4.4-1.9,5.4c-4.2,2.1-15.7-0.1-18.6-1.3c-4.6-1.8-9-4.2-14.1-6.6c-0.1,3.9-0.2,7.4-0.3,11.4
			c0,0.9,0.4,1.2,0.7,1.4c11.6,6.2,36,14.8,41,15.9c4.2,1,8.7,1.1,13,1.7c2.3,0.4,4.5,0.2,6.4-0.9
			C221.4,193.1,223.7,190,220.1,183.6z"/>
	</g>
</g>
<g>
	<path fill="#FFFFFF" d="M31,669.8h-0.9c-0.7-4.4-3.9-6.2-8.1-6.2c-4.4,0-10.7,2.9-10.7,12c0,7.7,5.5,13.2,11.3,13.2
		c3.8,0,6.9-2.6,7.6-6.6l0.9,0.2l-0.9,5.5c-1.6,1-5.9,2-8.4,2c-8.9,0-14.5-5.7-14.5-14.3c0-7.8,6.9-13.4,14.4-13.4c3.1,0,6,1,9,2
		L31,669.8z"/>
	<path fill="#FFFFFF" d="M43.5,672.1c5.3,0,9.2,3.5,9.2,8.9c0,4.9-3.9,9-8.7,9c-5,0-9.2-3.5-9.2-8.9
		C34.8,676.2,38.5,672.1,43.5,672.1z M44,689c3.8,0,5.3-4.4,5.3-7.7c0-3.1-1.7-8.3-5.7-8.3c-3.8,0-5.2,4.4-5.2,7.7
		C38.3,683.8,40,689,44,689z"/>
	<path fill="#FFFFFF" d="M61.9,696.1c0,0.9,0.9,0.9,1.8,0.9h1.7v1c-1.6,0-3.2-0.1-4.9-0.1c-1.6,0-3.1,0-4.7,0.1v-1h1.4
		c1.4,0,1.6-0.6,1.6-1.2v-18c0-2.9-1.1-2.7-2.2-3.3V674c1.5-0.7,3-1.4,4.5-2c0.1,0,0.3-0.2,0.4-0.2c0.2,0,0.4,0,0.4,0.3v2.7
		c1.5-1.3,3.5-2.8,5.7-2.8c4.2,0,7,4.1,7,8.1c0,5.2-4.1,9.8-9.3,9.8c-1,0-2.5-0.3-3.4-0.7V696.1z M65.3,674.6
		c-1.3,0-2.7,0.7-3.4,1.3v10.3c0.5,0.9,1.7,2.6,4.1,2.6c3.7,0,5.6-3.8,5.6-7.1C71.6,678,69.4,674.6,65.3,674.6z"/>
	<path fill="#FFFFFF" d="M81.3,678.9c-0.1,0.3-0.1,0.9,0,2.2c0.2,3.6,2.5,6.6,5.6,6.6c2.1,0,3.7-1.1,5.1-2.5l0.5,0.5
		c-1.7,2.3-3.9,4.3-7,4.3c-6,0-7.2-5.8-7.2-8.3c0-7.4,5-9.6,7.7-9.6c3.1,0,6.4,1.9,6.4,6c0,0.2,0,0.5,0,0.7l-0.3,0.2H81.3z
		 M88,677.7c0.9,0,1.1-0.5,1.1-0.9c0-1.9-1.2-3.5-3.3-3.5c-2.3,0-3.9,1.7-4.4,4.4H88z"/>
	<path fill="#FFFFFF" d="M98.1,677.1c0-1.4-0.4-1.8-2.2-2.5v-0.7c1.6-0.5,3.2-1,5-1.8c0.1,0,0.2,0.1,0.2,0.4v2.5
		c2.2-1.6,4-2.8,6.6-2.8c3.2,0,4.4,2.4,4.4,5.3v9.8c0,1.3,0.8,1.3,1.9,1.3h0.7v1c-1.3,0-2.7-0.1-4-0.1s-2.7,0-4.1,0.1v-1h0.7
		c1.1,0,1.8,0,1.8-1.3v-9.8c0-2.2-1.3-3.2-3.5-3.2c-1.2,0-3.1,1-4.4,1.8v11.2c0,1.3,0.8,1.3,1.9,1.3h0.7v1c-1.3,0-2.7-0.1-4-0.1
		s-2.7,0-4.1,0.1v-1h0.7c1.1,0,1.8,0,1.8-1.3V677.1z"/>
	<path fill="#FFFFFF" d="M119.9,666c0-2.5-0.6-2.5-2-3v-0.6c1.5-0.5,3.1-1.2,3.9-1.6c0.4-0.2,0.7-0.4,0.8-0.4c0.2,0,0.3,0.2,0.3,0.5
		v14.5c0.3-0.3,2.8-3.3,5.8-3.3c3.3,0,5.1,2.4,5.1,5.7v9.4c0,1.3,0.8,1.3,1.9,1.3h0.7v1c-1.3,0-2.7-0.1-4.1-0.1
		c-1.4,0-2.7,0-4.1,0.1v-1h0.7c1.8,0,1.9-0.4,1.9-4.1V680c0-2.8-0.3-5.7-3.7-5.7c-1.8,0-3.3,1.3-4.2,2.1v10.7c0,1.3,0.8,1.3,1.9,1.3
		h0.7v1c-1.3,0-2.7-0.1-4-0.1s-2.7,0-4.1,0.1v-1h0.7c1.1,0,1.8,0,1.8-1.3V666z"/>
	<path fill="#FFFFFF" d="M155.9,687.9c-1.1,1-2.2,2-3.8,2c-1.6,0-2.3-1.4-2.4-2.8c-1.8,1.6-3.5,2.8-5.8,2.8c-2.4,0-4.1-1.7-4.1-3.7
		c0.2-3,1.7-3.6,9.9-6.4v-2.5c0-2.1-1.3-3.3-3.7-3.3c-1.7,0-2.8,0.9-2.9,2.7c0,1.1-1.2,1.6-2.1,1.6c-0.6,0-0.7-0.5-0.7-0.8
		c0-2,1.7-3,4.4-4.3c1.3-0.7,2-1.2,3.4-1.2c1.7,0,4.6,1.1,4.6,3.2v10.5c0,1.6,0.5,2.2,1.4,2.2c0.5,0,1.1-0.2,1.4-0.6L155.9,687.9z
		 M149.7,681c-1.9,0.8-6.9,1.6-6.9,4.5c0,1.5,1.2,2.7,2.7,2.7c1.8,0,2.9-1.1,4.2-2.2V681z"/>
	<path fill="#FFFFFF" d="M176,674.9l-3.8-0.2c0.6,0.8,1,1.9,1,2.9c0,2.8-2.3,5.8-7,5.8c-0.6,0-1.3-0.1-2.1-0.2
		c-0.7,0.5-1.1,1-1.1,1.9c0,0.6,0.2,1.7,2.7,1.7c1.9,0,3.7,0,5.2,0c3.3,0,5.2,1,5.2,3.8c0,1.5-2,7.3-10.1,7.3
		c-4.8,0-7.2-2.2-7.2-4.2c0-2.4,2.1-3.9,4.4-4.4v-0.1c-1.6-0.5-3.3-1.6-3.3-3.3c0-0.4,0-0.8,0.2-1.2c1.1-0.6,2.6-1.4,3.1-1.9
		c-2.1-1.1-3.6-2.5-3.6-5c0-3.3,2.4-5.8,7.1-5.8c1.1,0,2.4,0.3,3.3,0.5c1.1,0.3,2.1,0.6,3.7,0.6c0.7,0,1.2,0,2.2-0.2V674.9z
		 M167.9,689.4c-2.5,0-6.3,0-6.3,3.6c0,2.6,2.4,3.9,5,3.9c2.3,0,6.6-1,6.6-4.4C173.2,689.7,169.9,689.4,167.9,689.4z M166.3,673
		c-2.3,0-3.3,2.3-3.3,4.3c0,2.2,0.9,5.1,3.6,5.1c2.6,0,3.7-2.1,3.7-4.4C170.2,675.7,168.9,673,166.3,673z"/>
	<path fill="#FFFFFF" d="M182,678.9c-0.1,0.3-0.1,0.9,0,2.2c0.2,3.6,2.5,6.6,5.6,6.6c2.1,0,3.7-1.1,5.1-2.5l0.5,0.5
		c-1.7,2.3-3.9,4.3-7,4.3c-6,0-7.2-5.8-7.2-8.3c0-7.4,5-9.6,7.7-9.6c3.1,0,6.4,1.9,6.4,6c0,0.2,0,0.5,0,0.7l-0.3,0.2H182z
		 M188.7,677.7c0.9,0,1.1-0.5,1.1-0.9c0-1.9-1.2-3.5-3.3-3.5c-2.3,0-3.9,1.7-4.4,4.4H188.7z"/>
	<path fill="#FFFFFF" d="M198.8,677.1c0-1.4-0.4-1.8-2.2-2.5v-0.7c1.6-0.5,3.2-1,5-1.8c0.1,0,0.2,0.1,0.2,0.4v2.5
		c2.2-1.6,4-2.8,6.6-2.8c3.2,0,4.4,2.4,4.4,5.3v9.8c0,1.3,0.8,1.3,1.9,1.3h0.7v1c-1.3,0-2.7-0.1-4-0.1s-2.7,0-4.1,0.1v-1h0.7
		c1.1,0,1.8,0,1.8-1.3v-9.8c0-2.2-1.3-3.2-3.5-3.2c-1.2,0-3.1,1-4.4,1.8v11.2c0,1.3,0.8,1.3,1.9,1.3h0.7v1c-1.3,0-2.7-0.1-4-0.1
		s-2.7,0-4.1,0.1v-1h0.7c1.1,0,1.8,0,1.8-1.3V677.1z"/>
	<path fill="#FFFFFF" d="M219.7,672.2c1.7-0.6,3.6-1.6,3.6-3.7c0-1.5-0.9-1.6-1.9-1.6c-1,0-1.9-0.2-1.9-2c0-1.4,1.1-2,2.3-2
		c2.4,0,3.5,2,3.5,4.2c0,3.2-2.4,5.2-5.3,6L219.7,672.2z"/>
	<path fill="#FFFFFF" d="M227.9,684.1c0.5,2.5,2,4.6,4.8,4.6c2.2,0,3.1-1.4,3.1-2.7c0-4.5-8.3-3-8.3-9.1c0-2.1,1.7-4.9,5.9-4.9
		c1.2,0,2.8,0.3,4.3,1.1l0.3,3.9h-0.9c-0.4-2.4-1.7-3.8-4.1-3.8c-1.5,0-3,0.9-3,2.5c0,4.4,8.8,3.1,8.8,9c0,2.5-2,5.2-6.5,5.2
		c-1.5,0-3.3-0.5-4.6-1.3l-0.4-4.4L227.9,684.1z"/>
	<path fill="#FFFFFF" d="M26.7,729c0.5,1.5,1.6,4.7,2.2,5.5c0.6,0.8,1.7,1,2.9,1v1c-1.4,0-2.9-0.1-4.4-0.1c-1.9,0-3.7,0-5.5,0.1v-1
		h0.7c0.9,0,2.1-0.2,2.1-1.3c0-0.4-0.3-1.5-0.6-2.2l-1.9-5.5h-8.9l-0.8,2.7c-0.5,1.6-1,3.3-1,4.5c0,1.8,1.3,1.7,2.6,1.8h0.9v1
		c-1.5,0-3-0.1-4.5-0.1c-1.5,0-3.1,0-4.6,0.1v-1c2.3-0.3,2.7-0.6,3.7-2.7c0.6-1.4,1.1-2.8,1.6-4.2l4.9-13.5c0.3-0.9,0.8-2.3,0.8-3.4
		c0-0.4,0-0.7-0.1-1c0.8-0.4,1.7-0.8,2.2-1.7h0.6L26.7,729z M13.8,725h7.8l-4.1-11.2h-0.1L13.8,725z"/>
	<path fill="#FFFFFF" d="M34.4,735.5h0.7c1.1,0,1.8,0,1.8-1.3v-21.1c0-2.5-0.6-2.5-2-3v-0.6c1.5-0.5,3.1-1.2,3.9-1.6
		c0.4-0.2,0.7-0.4,0.8-0.4c0.2,0,0.3,0.2,0.3,0.5v26.2c0,1.3,0.8,1.3,1.9,1.3h0.6v1c-1.3,0-2.6-0.1-4-0.1s-2.7,0-4.1,0.1V735.5z"/>
	<path fill="#FFFFFF" d="M50.8,731.8c0,2.5,1.4,3.2,2.4,3.2c1,0,1.8-0.3,2.7-1.1l0.6,0.6c-1.3,1.4-3,2.6-5,2.6
		c-2.4,0-3.6-1.3-3.6-3.5v-11.8h-2.5v-0.6c2-1.5,3.1-2.2,5.1-5.3h0.5v3.9h5.7v2h-5.7V731.8z"/>
	<path fill="#FFFFFF" d="M62.2,726c-0.1,0.3-0.1,0.9,0,2.2c0.2,3.6,2.5,6.6,5.6,6.6c2.1,0,3.7-1.1,5.1-2.5l0.5,0.5
		c-1.7,2.3-3.9,4.3-7,4.3c-6,0-7.2-5.8-7.2-8.3c0-7.4,5-9.6,7.7-9.6c3.1,0,6.4,1.9,6.4,6c0,0.2,0,0.5,0,0.7l-0.3,0.2H62.2z
		 M68.9,724.8c0.9,0,1.1-0.5,1.1-0.9c0-1.9-1.2-3.5-3.3-3.5c-2.3,0-3.9,1.7-4.4,4.4H68.9z"/>
	<path fill="#FFFFFF" d="M76.4,735.5h1c1.1,0,1.8,0,1.8-1.3v-10.7c0-1.2-1.4-1.4-2-1.7v-0.6c2.8-1.2,4.3-2.2,4.6-2.2
		c0.2,0,0.3,0.1,0.3,0.5v3.4h0.1c0.9-1.5,2.5-3.9,4.9-3.9c0.9,0,2.2,0.6,2.2,2c0,1-0.7,1.9-1.8,1.9c-1.2,0-1.2-0.9-2.5-0.9
		c-0.6,0-2.8,0.9-2.8,3.1v8.9c0,1.3,0.8,1.3,1.8,1.3h2.1v1c-2.1,0-3.7-0.1-5.3-0.1c-1.6,0-3.1,0-4.5,0.1V735.5z"/>
	<path fill="#FFFFFF" d="M94.5,724.2c0-1.4-0.4-1.8-2.2-2.5V721c1.6-0.5,3.2-1,5-1.8c0.1,0,0.2,0.1,0.2,0.4v2.5
		c2.2-1.6,4-2.8,6.6-2.8c3.2,0,4.4,2.4,4.4,5.3v9.8c0,1.3,0.8,1.3,1.9,1.3h0.7v1c-1.3,0-2.7-0.1-4-0.1s-2.7,0-4.1,0.1v-1h0.7
		c1.1,0,1.8,0,1.8-1.3v-9.8c0-2.2-1.3-3.2-3.5-3.2c-1.2,0-3.1,1-4.4,1.8v11.2c0,1.3,0.8,1.3,1.9,1.3h0.7v1c-1.3,0-2.7-0.1-4-0.1
		s-2.7,0-4.1,0.1v-1h0.7c1.1,0,1.8,0,1.8-1.3V724.2z"/>
	<path fill="#FFFFFF" d="M130.5,735c-1.1,1-2.2,2-3.8,2c-1.6,0-2.3-1.4-2.4-2.8c-1.8,1.6-3.5,2.8-5.8,2.8c-2.4,0-4.1-1.7-4.1-3.7
		c0.2-3,1.7-3.6,9.9-6.4v-2.5c0-2.1-1.3-3.3-3.7-3.3c-1.7,0-2.8,0.9-2.9,2.7c0,1.1-1.2,1.6-2.1,1.6c-0.6,0-0.7-0.5-0.7-0.8
		c0-2,1.7-3,4.4-4.3c1.3-0.7,2-1.2,3.4-1.2c1.7,0,4.6,1.1,4.6,3.2v10.5c0,1.6,0.5,2.2,1.4,2.2c0.5,0,1.1-0.2,1.4-0.6L130.5,735z
		 M124.4,728.1c-1.9,0.8-6.9,1.6-6.9,4.5c0,1.5,1.2,2.7,2.7,2.7c1.8,0,2.9-1.1,4.2-2.2V728.1z"/>
	<path fill="#FFFFFF" d="M138.8,731.8c0,2.5,1.4,3.2,2.4,3.2c1,0,1.8-0.3,2.7-1.1l0.6,0.6c-1.3,1.4-3,2.6-5,2.6
		c-2.4,0-3.6-1.3-3.6-3.5v-11.8h-2.5v-0.6c2-1.5,3.1-2.2,5.1-5.3h0.5v3.9h5.7v2h-5.7V731.8z"/>
	<path fill="#FFFFFF" d="M147.2,735.5h0.7c1.1,0,1.8,0,1.8-1.3V724c0-1.7-0.6-1.9-2-2.7v-0.6c1.8-0.5,3.9-1.3,4.1-1.4
		c0.3-0.2,0.5-0.2,0.7-0.2s0.3,0.2,0.3,0.5v14.6c0,1.3,0.8,1.3,1.9,1.3h0.6v1c-1.3,0-2.6-0.1-4-0.1s-2.7,0-4.1,0.1V735.5z
		 M151.2,713.3c-1,0-1.9-0.9-1.9-1.9c0-0.9,0.9-1.8,1.9-1.8c1,0,1.9,0.8,1.9,1.8C153.1,712.5,152.3,713.3,151.2,713.3z"/>
	<path fill="#FFFFFF" d="M160.9,723.6c-1.1-2.9-1.5-2.9-2.9-2.9v-1c1.3,0,2.5,0.1,3.8,0.1c1.3,0,2.6-0.1,3.9-0.1v1
		c-1.7,0-2.2,0.1-2.2,1c0,0.6,0.6,1.8,1.2,3.5l2.7,7.2l3.1-7.8c0.4-1.1,0.7-2,0.8-2.9c0-0.8-0.4-0.9-2-1v-1c0.9,0,1.8,0.1,2.7,0.1
		c1.1,0,2.3-0.1,3.5-0.1v1c-1.8,0-2.4,1-3,2.7l-5.5,13.6h-0.9L160.9,723.6z"/>
	<path fill="#FFFFFF" d="M181.3,726c-0.1,0.3-0.1,0.9,0,2.2c0.2,3.6,2.5,6.6,5.6,6.6c2.1,0,3.7-1.1,5.1-2.5l0.5,0.5
		c-1.7,2.3-3.9,4.3-7,4.3c-6,0-7.2-5.8-7.2-8.3c0-7.4,5-9.6,7.7-9.6c3.1,0,6.4,1.9,6.4,6c0,0.2,0,0.5,0,0.7L192,726H181.3z
		 M188,724.8c0.9,0,1.1-0.5,1.1-0.9c0-1.9-1.2-3.5-3.3-3.5c-2.3,0-3.9,1.7-4.4,4.4H188z"/>
	<path fill="#FFFFFF" d="M226.1,729c0.5,1.5,1.6,4.7,2.2,5.5c0.6,0.8,1.7,1,2.9,1v1c-1.4,0-2.9-0.1-4.4-0.1c-1.9,0-3.7,0-5.5,0.1v-1
		h0.7c0.9,0,2.1-0.2,2.1-1.3c0-0.4-0.3-1.5-0.6-2.2l-1.9-5.5h-8.9l-0.8,2.7c-0.5,1.6-1,3.3-1,4.5c0,1.8,1.3,1.7,2.6,1.8h0.9v1
		c-1.5,0-3-0.1-4.5-0.1c-1.5,0-3.1,0-4.6,0.1v-1c2.3-0.3,2.7-0.6,3.7-2.7c0.6-1.4,1.1-2.8,1.6-4.2l4.9-13.5c0.3-0.9,0.8-2.3,0.8-3.4
		c0-0.4,0-0.7-0.1-1c0.8-0.4,1.7-0.8,2.2-1.7h0.6L226.1,729z M213.2,725h7.8l-4.1-11.2h-0.1L213.2,725z"/>
	<path fill="#FFFFFF" d="M233.5,735.5h1c1.1,0,1.8,0,1.8-1.3v-10.7c0-1.2-1.4-1.4-2-1.7v-0.6c2.8-1.2,4.3-2.2,4.6-2.2
		c0.2,0,0.3,0.1,0.3,0.5v3.4h0.1c0.9-1.5,2.5-3.9,4.9-3.9c0.9,0,2.2,0.6,2.2,2c0,1-0.7,1.9-1.8,1.9c-1.2,0-1.2-0.9-2.5-0.9
		c-0.6,0-2.8,0.9-2.8,3.1v8.9c0,1.3,0.8,1.3,1.8,1.3h2.1v1c-2.1,0-3.7-0.1-5.3-0.1c-1.6,0-3.1,0-4.5,0.1V735.5z"/>
	<path fill="#FFFFFF" d="M254.4,731.8c0,2.5,1.4,3.2,2.4,3.2c1,0,1.8-0.3,2.7-1.1l0.6,0.6c-1.3,1.4-3,2.6-5,2.6
		c-2.4,0-3.6-1.3-3.6-3.5v-11.8h-2.5v-0.6c2-1.5,3.1-2.2,5.1-5.3h0.5v3.9h5.7v2h-5.7V731.8z"/>
	<path fill="#FFFFFF" d="M284.9,719.7v2h-4.8v12.8c0,0.9,0.9,0.9,1.8,0.9h1.7v1c-1.6,0-3.2-0.1-4.9-0.1c-1.6,0-3.1,0-4.7,0.1v-1h1.4
		c1.4,0,1.6-0.6,1.6-1.2v-12.5h-2.7v-0.6c0.9-0.5,2.7-1.1,2.7-2.4c0-2.5,0.7-6.2,3-8.6c2.1-2.2,4.1-2.6,4.6-2.6
		c0.6,0,1.7,0.2,1.7,1.6c0,0.8-0.4,1.5-1.3,1.5c-0.6,0-0.8-0.2-1.1-0.3c-0.3-0.2-0.6-0.3-1.3-0.3c-2.3,0-2.5,2.7-2.5,4.3v5.4H284.9z
		"/>
	<path fill="#FFFFFF" d="M303.8,735c-1.1,1-2.2,2-3.8,2c-1.6,0-2.3-1.4-2.4-2.8c-1.8,1.6-3.5,2.8-5.8,2.8c-2.4,0-4.1-1.7-4.1-3.7
		c0.2-3,1.7-3.6,9.9-6.4v-2.5c0-2.1-1.3-3.3-3.7-3.3c-1.7,0-2.8,0.9-2.9,2.7c0,1.1-1.2,1.6-2.1,1.6c-0.6,0-0.7-0.5-0.7-0.8
		c0-2,1.7-3,4.4-4.3c1.3-0.7,2-1.2,3.4-1.2c1.7,0,4.6,1.1,4.6,3.2v10.5c0,1.6,0.5,2.2,1.4,2.2c0.5,0,1.1-0.2,1.4-0.6L303.8,735z
		 M297.7,728.1c-1.9,0.8-6.9,1.6-6.9,4.5c0,1.5,1.2,2.7,2.7,2.7c1.8,0,2.9-1.1,4.2-2.2V728.1z"/>
	<path fill="#FFFFFF" d="M307.1,735.5h0.7c1.1,0,1.8,0,1.8-1.3V724c0-1.7-0.6-1.9-2-2.7v-0.6c1.8-0.5,3.9-1.3,4.1-1.4
		c0.3-0.2,0.5-0.2,0.7-0.2s0.3,0.2,0.3,0.5v14.6c0,1.3,0.8,1.3,1.9,1.3h0.6v1c-1.3,0-2.6-0.1-4-0.1s-2.7,0-4.1,0.1V735.5z
		 M311.2,713.3c-1,0-1.9-0.9-1.9-1.9c0-0.9,0.9-1.8,1.9-1.8c1,0,1.9,0.8,1.9,1.8C313,712.5,312.2,713.3,311.2,713.3z"/>
	<path fill="#FFFFFF" d="M318.1,735.5h1c1.1,0,1.8,0,1.8-1.3v-10.7c0-1.2-1.4-1.4-2-1.7v-0.6c2.8-1.2,4.3-2.2,4.6-2.2
		c0.2,0,0.3,0.1,0.3,0.5v3.4h0.1c0.9-1.5,2.5-3.9,4.9-3.9c0.9,0,2.2,0.6,2.2,2c0,1-0.7,1.9-1.8,1.9c-1.2,0-1.2-0.9-2.5-0.9
		c-0.6,0-2.8,0.9-2.8,3.1v8.9c0,1.3,0.8,1.3,1.8,1.3h2.1v1c-2.1,0-3.7-0.1-5.3-0.1c-1.6,0-3.1,0-4.5,0.1V735.5z"/>
</g>
<g>
	<path fill="#FFFFFF" d="M381.4,710.3h9.6l-0.8,3h-8.5l-1.5,3.9c4.5,2.3,8.9,4.8,8.9,10.5c0,5.3-4.2,9.3-9.5,9.3c-2,0-5.4-1.1-5.4-3
		c0-0.9,0.6-1.1,1.2-1.1c1.6,0,1.5,3,5,3c3.6,0,5.7-3,5.7-6.4c0-5.2-4.2-7.4-8.2-9.4L381.4,710.3z"/>
</g>
<g>
	<path fill="#FFFFFF" d="M509.4,710.3h17.1l0.3,0.3l-13.5,26.4l-1.6-0.6l12.1-23.1h-13.3l-1,2.2l-1-0.2L509.4,710.3z"/>
	<path fill="#FFFFFF" d="M541.1,730.2h0.9c0.6,2.8,2.8,5.6,5.9,5.6c2.9,0,5.2-2,5.2-5c0-7.1-11.2-5-11.2-13.9c0-4.9,3.5-7.4,8.1-7.4
		c1.6,0,3.1,0.3,4.6,0.6l0.6,4.9h-0.9c-0.4-2.7-2.2-4.2-4.9-4.2c-2.9,0-4.6,2.1-4.6,4.9c0,7.1,11.7,5.1,11.7,13.8
		c0,4.9-4.4,7.7-8.9,7.7c-2,0-4-0.5-5.8-1.3L541.1,730.2z"/>
	<path fill="#FFFFFF" d="M563.4,726c-0.1,0.3-0.1,0.9,0,2.2c0.2,3.6,2.5,6.6,5.6,6.6c2.1,0,3.7-1.1,5.1-2.5l0.5,0.5
		c-1.7,2.3-3.9,4.3-7,4.3c-6,0-7.2-5.8-7.2-8.3c0-7.4,5-9.6,7.7-9.6c3.1,0,6.4,1.9,6.4,6c0,0.2,0,0.5,0,0.7L574,726H563.4z
		 M570.1,724.8c0.9,0,1.1-0.5,1.1-0.9c0-1.9-1.2-3.5-3.3-3.5c-2.3,0-3.9,1.7-4.4,4.4H570.1z"/>
	<path fill="#FFFFFF" d="M583.4,743.3c0,0.9,0.9,0.9,1.8,0.9h1.7v1c-1.6,0-3.2-0.1-4.9-0.1c-1.6,0-3.1,0-4.7,0.1v-1h1.4
		c1.4,0,1.6-0.6,1.6-1.2v-18c0-2.9-1.1-2.7-2.2-3.3v-0.6c1.5-0.7,3-1.4,4.5-2c0.1,0,0.3-0.2,0.4-0.2c0.2,0,0.4,0,0.4,0.3v2.7
		c1.5-1.3,3.5-2.8,5.7-2.8c4.2,0,7,4.1,7,8.1c0,5.2-4.1,9.8-9.3,9.8c-1,0-2.5-0.3-3.4-0.7V743.3z M586.8,721.7
		c-1.3,0-2.7,0.7-3.4,1.3v10.3c0.5,0.9,1.7,2.6,4.1,2.6c3.7,0,5.6-3.8,5.6-7.1C593.1,725.2,590.9,721.7,586.8,721.7z"/>
	<path fill="#FFFFFF" d="M601.3,734.6c0-1.3,1.2-2.5,2.5-2.5c1.3,0,2.5,1.2,2.5,2.5c0,1.4-1.1,2.5-2.5,2.5
		C602.4,737.1,601.3,736,601.3,734.6z"/>
</g>
<rect x="403.5" y="723.6" fill="#FFFFFF" width="91.5" height="2.5"/>
</svg>
