<?xml version="1.0" encoding="utf-8"?>
<!-- Generator: Adobe Illustrator 17.1.0, SVG Export Plug-In . SVG Version: 6.00 Build 0)  -->
<!DOCTYPE svg PUBLIC "-//W3C//DTD SVG 1.1//EN" "http://www.w3.org/Graphics/SVG/1.1/DTD/svg11.dtd">
<svg version="1.1" id="Layer_1" xmlns="http://www.w3.org/2000/svg" xmlns:xlink="http://www.w3.org/1999/xlink" x="0px" y="0px"
	 viewBox="0 0 496.7 30.2" enable-background="new 0 0 496.7 30.2" xml:space="preserve">
<g>
	<path fill="#FFFFFF" d="M12.9,30.2c-6.6,0-11.1-2.4-12.9-7.1l7.4-2.5c0.9,2.7,3.1,3.5,5.9,3.5c2.8,0,4.4-1.3,4.4-3.2
		c0-6-17,1.5-17-11.8C0.8,3.7,6.1,0,13,0c6.5,0,10.4,1.8,12.1,5l-6.5,3.3c-1-2-3.1-2.6-5.4-2.6c-2.4,0-3.8,1-3.8,2.6
		c0,4.9,17-1.8,17,11.5C26.4,26,21,30.2,12.9,30.2z"/>
	<path fill="#FFFFFF" d="M53.3,6.9h-8v22.7h-9V6.9h-8.3V0.5h26.2L53.3,6.9z"/>
	<path fill="#FFFFFF" d="M73.5,29.6l-2.3-7h-8.7l-2.3,7h-9.5L61.5,0.5h10.9l10.9,29.1H73.5z M67.1,7.7h-0.6l-2.8,9.4H70L67.1,7.7z"
		/>
	<path fill="#FFFFFF" d="M105.9,6.9h-8v22.7h-9V6.9h-8.3V0.5h26.2L105.9,6.9z"/>
	<path fill="#FFFFFF" d="M110.8,29.6V0.5h23.4v6.4h-14.3v4.8h11.1l-1.2,6h-10v5.6h14.3v6.4H110.8z"/>
	<path fill="#FFFFFF" d="M158.8,29.6l-10.2-15.1c-0.5-0.7-1-1.9-1-1.9l-0.2,0.1c0,0,0.2,0.9,0.2,3v13.9h-7.8V0.5h8.4l10.2,15.1
		c0.6,0.8,1,1.9,1,1.9l0.2-0.1c0,0-0.2-1.6-0.2-3V0.5h7.8v29.1H158.8z"/>
	<path fill="#FFFFFF" d="M185,30.2c-6.6,0-11.1-2.4-12.9-7.1l7.4-2.5c0.9,2.7,3.1,3.5,5.9,3.5c2.8,0,4.4-1.3,4.4-3.2
		c0-6-17,1.5-17-11.8c0-5.4,5.3-9.1,12.2-9.1c6.5,0,10.4,1.8,12.1,5l-6.5,3.3c-1-2-3.1-2.6-5.4-2.6c-2.4,0-3.8,1-3.8,2.6
		c0,4.9,17-1.8,17,11.5C198.5,26,193.2,30.2,185,30.2z"/>
	<path fill="#FFFFFF" d="M233.9,29.6l-8.3-12.7v12.7h-9.1V0.5h9.1v11.3l5.2-6.7c1.3-1.6,2.2-3.4,2.4-4.6h9.8c-0.2,1.5-1.4,3.7-3.4,6
		l-6.4,7.4l11.6,15.7H233.9z"/>
	<path fill="#FFFFFF" d="M260.2,30.2c-6.9,0-14.1-2.9-14.1-11.1V0.5h9v18c0,3.1,1.9,4.9,4.8,4.9c2.8,0,4.5-1.9,4.5-4.9v-18h9V19
		C273.5,27.2,267.2,30.2,260.2,30.2z"/>
	<path fill="#FFFFFF" d="M299.6,29.6l-10.1-15.1c-0.5-0.7-1-1.9-1-1.9l-0.2,0.1c0,0,0.2,0.9,0.2,3v13.9h-7.8V0.5h8.4l10.2,15.1
		c0.6,0.8,1,1.9,1,1.9l0.2-0.1c0,0-0.2-1.6-0.2-3V0.5h7.8v29.1H299.6z"/>
	<path fill="#FFFFFF" d="M325.8,30.2c-6.6,0-11.1-2.4-12.9-7.1l7.4-2.5c0.9,2.7,3.1,3.5,5.9,3.5c2.8,0,4.4-1.3,4.4-3.2
		c0-6-17,1.5-17-11.8c0-5.4,5.3-9.1,12.2-9.1c6.5,0,10.4,1.8,12.1,5l-6.5,3.3c-1-2-3.1-2.6-5.4-2.6c-2.4,0-3.8,1-3.8,2.6
		c0,4.9,17-1.8,17,11.5C339.3,26,334,30.2,325.8,30.2z"/>
	<path fill="#FFFFFF" d="M366.2,6.9h-8v22.7h-9V6.9h-8.4V0.5H367L366.2,6.9z"/>
	<path fill="#FFFFFF" d="M380.2,6.9v5.5h11.7l-1.2,6.3h-10.4v10.9h-9.1V0.5h23v6.4H380.2z"/>
	<path fill="#FFFFFF" d="M412.8,30.2c-8.6,0-16.1-5.2-16.1-15c0-9.7,7.5-15.1,16.1-15.1c8.7,0,16.3,5.4,16.3,15.1
		C429.1,24.9,421.5,30.2,412.8,30.2z M412.9,6.7c-3.9,0-7.1,2.9-7.1,8.4c0,5.5,3.2,8.4,7.1,8.4c3.9,0,7.1-2.9,7.1-8.4
		C419.9,9.6,416.8,6.7,412.9,6.7z"/>
	<path fill="#FFFFFF" d="M452.8,29.6l-10.2-15.1c-0.5-0.7-1-1.9-1-1.9l-0.2,0.1c0,0,0.2,0.9,0.2,3v13.9h-7.8V0.5h8.4l10.2,15.1
		c0.6,0.8,1,1.9,1,1.9l0.2-0.1c0,0-0.2-1.6-0.2-3V0.5h7.8v29.1H452.8z"/>
	<path fill="#FFFFFF" d="M481.2,29.6h-12.9V0.5h12.9c10.2,0,15.5,4.6,15.5,14.5S491.4,29.6,481.2,29.6z M479.7,7h-2.3v16.3h2.3
		c6.1,0,7.7-3.2,7.7-8.3C487.4,8.9,485.1,7,479.7,7z"/>
</g>
</svg>
